<svg width="780" height="147" viewBox="0 0 780 147" fill="none" xmlns="http://www.w3.org/2000/svg">
<path d="M523.35 14.5195C529.317 14.5195 535.04 16.732 539.26 20.6703C543.48 24.6085 545.85 29.95 545.85 35.5195C545.85 41.0891 543.48 46.4305 539.26 50.3688C535.04 54.307 529.317 56.5195 523.35 56.5195L523.35 35.5195L523.35 14.5195Z" fill="#198F76"/>
<path d="M212.35 14.5195L231.836 56.5195H192.865L212.35 14.5195Z" fill="#799FCC"/>
<path d="M15.9406 56.359L0 14.4786H8.79585L20.3235 46.188L31.4909 14.4786H40.1067L24.4963 56.359H15.9406Z" fill="white"/>
<path d="M64.2849 57.2564C61.1028 57.2564 58.1509 56.708 55.4291 55.6111C52.7273 54.4943 50.3757 52.9487 48.3744 50.9744C46.373 49 44.822 46.6866 43.7213 44.0342C42.6205 41.3818 42.0702 38.51 42.0702 35.4188C42.0702 32.3077 42.6205 29.4259 43.7213 26.7735C44.822 24.1211 46.373 21.8077 48.3744 19.8333C50.3757 17.859 52.7273 16.3234 55.4291 15.2265C58.1509 14.1296 61.1028 13.5812 64.2849 13.5812C67.447 13.5812 70.379 14.1396 73.0808 15.2564C75.7826 16.3732 78.1342 17.9288 80.1355 19.9231C82.1368 21.9174 83.6979 24.2407 84.8186 26.8932C85.9393 29.5256 86.4997 32.3675 86.4997 35.4188C86.4997 38.51 85.9393 41.3818 84.8186 44.0342C83.6979 46.6866 82.1368 49 80.1355 50.9744C78.1342 52.9487 75.7826 54.4943 73.0808 55.6111C70.379 56.708 67.447 57.2564 64.2849 57.2564ZM64.2849 49.9274C66.2663 49.9274 68.1075 49.5883 69.8086 48.9103C71.5298 48.2123 73.0208 47.235 74.2816 45.9786C75.5624 44.7023 76.5531 43.1766 77.2536 41.4017C77.974 39.6068 78.3343 37.6125 78.3343 35.4188C78.3343 32.4872 77.7139 29.9345 76.473 27.7607C75.2322 25.5869 73.5511 23.9017 71.4297 22.7051C69.3083 21.5085 66.9267 20.9103 64.2849 20.9103C62.2836 20.9103 60.4324 21.2493 58.7313 21.9274C57.0301 22.6054 55.5391 23.5826 54.2583 24.859C52.9974 26.1353 52.0068 27.661 51.2863 29.4359C50.5858 31.2108 50.2356 33.2051 50.2356 35.4188C50.2356 38.3504 50.846 40.9031 52.0668 43.0769C53.3076 45.2507 54.9888 46.9359 57.1102 48.1325C59.2316 49.3291 61.6232 49.9274 64.2849 49.9274Z" fill="white"/>
<path d="M111.512 57.2564C107.71 57.2564 104.518 56.4886 101.936 54.953C99.3744 53.4174 97.4431 51.3333 96.1422 48.7009C94.8414 46.0484 94.1909 43.057 94.1909 39.7265V14.4786H101.996V39.8162C101.996 43.2066 102.847 45.7393 104.548 47.4145C106.249 49.0897 108.57 49.9274 111.512 49.9274C114.454 49.9274 116.766 49.0897 118.447 47.4145C120.148 45.7393 120.999 43.2066 120.999 39.8162V14.4786H128.834V39.7265C128.834 43.057 128.184 46.0484 126.883 48.7009C125.582 51.3333 123.651 53.4174 121.089 54.953C118.527 56.4886 115.335 57.2564 111.512 57.2564Z" fill="white"/>
<path d="M153.217 57.2564C150.215 57.2564 147.283 56.8276 144.421 55.9701C141.579 55.0926 139.178 53.8462 137.217 52.2308L140.999 46.3376C141.96 47.2151 143.111 47.9729 144.451 48.6111C145.792 49.2493 147.213 49.7479 148.714 50.1068C150.235 50.4459 151.746 50.6154 153.247 50.6154C155.749 50.6154 157.78 50.1567 159.341 49.2393C160.902 48.302 161.683 46.9558 161.683 45.2009C161.683 43.8248 161.142 42.6781 160.062 41.7607C158.981 40.8234 156.99 39.9459 154.088 39.1282L150.005 37.9615C145.902 36.8048 142.93 35.2593 141.089 33.3248C139.268 31.3704 138.357 28.9772 138.357 26.1453C138.357 24.2906 138.738 22.5954 139.498 21.0598C140.259 19.5242 141.329 18.198 142.71 17.0812C144.111 15.9644 145.762 15.1068 147.664 14.5085C149.565 13.9103 151.636 13.6111 153.878 13.6111C156.82 13.6111 159.551 14.0399 162.073 14.8974C164.595 15.735 166.656 16.8818 168.257 18.3376L164.385 24.0513C163.544 23.2735 162.553 22.5954 161.413 22.0171C160.272 21.4387 159.041 21 157.72 20.7009C156.399 20.3818 155.068 20.2222 153.728 20.2222C152.147 20.2222 150.766 20.4416 149.585 20.8803C148.404 21.3191 147.483 21.9473 146.823 22.765C146.163 23.5826 145.832 24.5798 145.832 25.7564C145.832 26.614 146.052 27.3618 146.493 28C146.953 28.6382 147.734 29.2265 148.834 29.765C149.935 30.2835 151.456 30.8319 153.397 31.4103L157.66 32.6667C161.683 33.8433 164.615 35.359 166.456 37.2137C168.297 39.0484 169.218 41.4416 169.218 44.3932C169.218 46.9259 168.577 49.1595 167.297 51.094C166.016 53.0285 164.174 54.5442 161.773 55.641C159.391 56.718 156.539 57.2564 153.217 57.2564Z" fill="white"/>
<path d="M242.791 56.359L226.85 14.4786H235.646L247.174 46.188L258.341 14.4786H266.957L251.346 56.359H242.791Z" fill="white"/>
<path d="M272.411 56.359V14.4786H300.36V21.2991H280.217V31.4402H297.448V37.812H280.217V49.4786H300.57V56.359H272.411Z" fill="white"/>
<path d="M306.941 56.359V49.8675L327.505 21.5983H307.632V14.4786H336.931V20.9402L316.458 49.2393H337.112V56.359H306.941Z" fill="white"/>
<path d="M376.239 57.2564C372.437 57.2564 369.245 56.4886 366.663 54.953C364.101 53.4174 362.17 51.3333 360.869 48.7009C359.568 46.0484 358.918 43.057 358.918 39.7265V14.4786H366.723V39.8162C366.723 43.2066 367.574 45.7393 369.275 47.4145C370.976 49.0897 373.297 49.9274 376.239 49.9274C379.181 49.9274 381.493 49.0897 383.174 47.4145C384.875 45.7393 385.726 43.2066 385.726 39.8162V14.4786H393.561V39.7265C393.561 43.057 392.91 46.0484 391.609 48.7009C390.309 51.3333 388.377 53.4174 385.816 54.953C383.254 56.4886 380.062 57.2564 376.239 57.2564Z" fill="white"/>
<path d="M403.925 56.359V14.4786H411.49L431.393 43.3162V14.4786H438.988V56.359H431.423L411.52 27.1624V56.359H403.925Z" fill="white"/>
<path d="M449.6 56.359V14.4786H477.548V21.2991H457.405V31.4402H474.636V37.812H457.405V49.4786H477.758V56.359H449.6Z" fill="white"/>
<path d="M501.255 56.359V14.4786H509.06V56.359H501.255Z" fill="white"/>
<path d="M556.609 56.359V14.4786H584.558V21.2991H564.415V31.4402H581.646V37.812H564.415V49.4786H584.768V56.359H556.609ZM566.246 9.96154L572.13 0H580.145L573.511 9.96154H566.246Z" fill="white"/>
<path d="M593.841 56.359V14.4786H621.79V21.2991H601.646V31.4402H618.878V37.812H601.646V49.4786H622V56.359H593.841Z" fill="white"/>
<path d="M5.16343 146.103V104.222H12.9686V146.103H5.16343Z" fill="white"/>
<path d="M23.5741 146.103V104.222H31.1391L51.0424 133.06V104.222H58.6374V146.103H51.0724L31.1692 116.906V146.103H23.5741Z" fill="white"/>
<path d="M77.0242 146.103V111.342H65.4065V104.222H96.4771V111.342H84.8594V146.103H77.0242Z" fill="white"/>
<path d="M103.256 146.103V104.222H131.205V111.043H111.061V121.184H128.293V127.556H111.061V139.222H131.415V146.103H103.256ZM112.892 99.7051L118.776 89.7436H126.792L120.157 99.7051H112.892Z" fill="white"/>
<path d="M140.488 146.103V104.222H156.759C159.741 104.222 162.332 104.731 164.534 105.748C166.735 106.745 168.436 108.181 169.637 110.056C170.838 111.93 171.438 114.164 171.438 116.756C171.438 118.83 171.008 120.655 170.148 122.231C169.287 123.806 168.096 125.113 166.575 126.15C165.074 127.187 163.333 127.915 161.352 128.333L173.57 146.103H164.204L153.336 129.709H148.293V146.103H140.488ZM148.293 123.338H155.618C158.12 123.338 160.071 122.819 161.472 121.782C162.873 120.725 163.573 119.189 163.573 117.175C163.573 115.081 162.933 113.486 161.652 112.389C160.371 111.292 158.49 110.744 156.008 110.744H148.293V123.338Z" fill="white"/>
<path d="M180.827 146.103V104.222H208.776V111.043H188.632V121.184H205.864V127.556H188.632V139.222H208.986V146.103H180.827Z" fill="white"/>
<path d="M232.078 147C229.076 147 226.144 146.571 223.282 145.714C220.441 144.836 218.039 143.59 216.078 141.974L219.86 136.081C220.821 136.959 221.972 137.717 223.312 138.355C224.653 138.993 226.074 139.491 227.575 139.85C229.096 140.189 230.607 140.359 232.108 140.359C234.61 140.359 236.641 139.9 238.202 138.983C239.763 138.046 240.544 136.699 240.544 134.944C240.544 133.568 240.004 132.422 238.923 131.504C237.842 130.567 235.851 129.689 232.949 128.872L228.866 127.705C224.763 126.548 221.791 125.003 219.95 123.068C218.129 121.114 217.218 118.721 217.218 115.889C217.218 114.034 217.599 112.339 218.359 110.803C219.12 109.268 220.19 107.942 221.571 106.825C222.972 105.708 224.623 104.85 226.525 104.252C228.426 103.654 230.497 103.355 232.739 103.355C235.681 103.355 238.412 103.783 240.934 104.641C243.456 105.479 245.517 106.625 247.118 108.081L243.246 113.795C242.405 113.017 241.414 112.339 240.274 111.761C239.133 111.182 237.902 110.744 236.581 110.444C235.26 110.125 233.93 109.966 232.589 109.966C231.008 109.966 229.627 110.185 228.446 110.624C227.265 111.063 226.344 111.691 225.684 112.509C225.024 113.326 224.693 114.323 224.693 115.5C224.693 116.358 224.913 117.105 225.354 117.744C225.814 118.382 226.595 118.97 227.695 119.509C228.796 120.027 230.317 120.576 232.258 121.154L236.521 122.41C240.544 123.587 243.476 125.103 245.317 126.957C247.158 128.792 248.079 131.185 248.079 134.137C248.079 136.67 247.438 138.903 246.158 140.838C244.877 142.772 243.036 144.288 240.634 145.385C238.252 146.462 235.4 147 232.078 147Z" fill="white"/>
<path d="M270.014 147C267.012 147 264.08 146.571 261.218 145.714C258.376 144.836 255.974 143.59 254.013 141.974L257.796 136.081C258.756 136.959 259.907 137.717 261.248 138.355C262.589 138.993 264.01 139.491 265.511 139.85C267.032 140.189 268.543 140.359 270.044 140.359C272.545 140.359 274.577 139.9 276.138 138.983C277.699 138.046 278.479 136.699 278.479 134.944C278.479 133.568 277.939 132.422 276.858 131.504C275.777 130.567 273.786 129.689 270.884 128.872L266.802 127.705C262.699 126.548 259.727 125.003 257.886 123.068C256.064 121.114 255.154 118.721 255.154 115.889C255.154 114.034 255.534 112.339 256.295 110.803C257.055 109.268 258.126 107.942 259.507 106.825C260.908 105.708 262.559 104.85 264.46 104.252C266.361 103.654 268.433 103.355 270.674 103.355C273.616 103.355 276.348 103.783 278.87 104.641C281.391 105.479 283.453 106.625 285.054 108.081L281.181 113.795C280.341 113.017 279.35 112.339 278.209 111.761C277.068 111.182 275.838 110.744 274.517 110.444C273.196 110.125 271.865 109.966 270.524 109.966C268.943 109.966 267.562 110.185 266.381 110.624C265.2 111.063 264.28 111.691 263.619 112.509C262.959 113.326 262.629 114.323 262.629 115.5C262.629 116.358 262.849 117.105 263.289 117.744C263.749 118.382 264.53 118.97 265.631 119.509C266.731 120.027 268.252 120.576 270.194 121.154L274.457 122.41C278.479 123.587 281.411 125.103 283.252 126.957C285.094 128.792 286.014 131.185 286.014 134.137C286.014 136.67 285.374 138.903 284.093 140.838C282.812 142.772 280.971 144.288 278.569 145.385C276.188 146.462 273.336 147 270.014 147Z" fill="white"/>
<path d="M289.126 146.103L305.247 104.222H313.953L330.404 146.103H321.608L318.036 136.62H301.135L297.682 146.103H289.126ZM303.056 130.009H316.054L309.45 113.017L303.056 130.009Z" fill="white"/>
<path d="M336.204 146.103V104.222H343.769L363.672 133.06V104.222H371.267V146.103H363.702L343.799 116.906V146.103H336.204Z" fill="white"/>
<path d="M389.654 146.103V111.342H378.036V104.222H409.107V111.342H397.489V146.103H389.654Z" fill="white"/>
<path d="M415.886 146.103V104.222H443.834V111.043H423.691V121.184H440.922V127.556H423.691V139.222H444.045V146.103H415.886Z" fill="white"/>
<path d="M472.014 132.611C471.494 130.437 471.304 128.672 471.444 127.316C471.584 125.94 472.034 124.783 472.795 123.846C473.575 122.909 474.646 122.001 476.007 121.124C477.928 119.887 479.209 118.85 479.849 118.013C480.49 117.175 480.81 116.248 480.81 115.231C480.81 113.635 480.24 112.449 479.099 111.671C477.978 110.873 476.357 110.474 474.236 110.474C472.675 110.474 471.254 110.694 469.973 111.132C468.712 111.571 467.491 112.189 466.31 112.987L464.479 106.675C465.08 106.137 465.94 105.618 467.061 105.12C468.182 104.601 469.503 104.172 471.024 103.833C472.545 103.494 474.186 103.325 475.947 103.325C478.549 103.325 480.88 103.744 482.941 104.581C485.003 105.419 486.624 106.615 487.805 108.171C489.006 109.727 489.606 111.571 489.606 113.705C489.606 114.922 489.386 116.058 488.945 117.115C488.505 118.172 487.765 119.219 486.724 120.256C485.703 121.293 484.312 122.4 482.551 123.577C481.33 124.375 480.43 125.142 479.849 125.88C479.289 126.618 478.969 127.506 478.889 128.543C478.829 129.56 478.919 130.916 479.159 132.611H472.014ZM475.827 147C474.426 147 473.215 146.561 472.194 145.684C471.174 144.786 470.663 143.6 470.663 142.124C470.663 141.127 470.893 140.259 471.354 139.521C471.834 138.783 472.465 138.215 473.245 137.816C474.026 137.417 474.886 137.218 475.827 137.218C477.248 137.218 478.459 137.667 479.459 138.564C480.48 139.442 480.99 140.628 480.99 142.124C480.99 143.101 480.75 143.959 480.27 144.697C479.809 145.434 479.189 146.003 478.408 146.402C477.628 146.801 476.767 147 475.827 147Z" fill="white"/>
</svg>
