<svg width="780" height="148" viewBox="0 0 780 148" fill="none" xmlns="http://www.w3.org/2000/svg">
<path d="M720.245 0.928711L740.366 44.2307H700.124L720.245 0.928711Z" fill="#799FCC"/>
<path d="M264.864 44.2307C258.702 44.2307 252.793 41.9496 248.436 37.8893C244.078 33.8289 241.631 28.3219 241.631 22.5797C241.631 16.8375 244.078 11.3305 248.436 7.27014C252.793 3.20979 258.702 0.928711 264.864 0.92871L264.864 22.5797L264.864 44.2307Z" fill="#198F76"/>
<path d="M4.39891 45.0031L1.36304 37.6418C3.88261 37.0851 6.12337 36.25 8.08533 35.1365C10.0679 34.023 11.844 32.528 13.4136 30.6516C15.0038 28.7752 16.4804 26.4348 17.8435 23.6305L28.8408 0.927899H38.1652L25.1853 26.5689C23.6984 29.5175 22.1908 32.0641 20.6625 34.2086C19.1342 36.353 17.5337 38.1573 15.8609 39.6213C14.2087 41.0647 12.4326 42.2194 10.5326 43.0855C8.65326 43.9515 6.6087 44.5907 4.39891 45.0031ZM16.5734 31.1465L0 0.927899H9.78913L21.9946 24.1873L16.5734 31.1465Z" fill="white"/>
<path d="M58.3398 44.2299V0.927899H73.86C78.0937 0.927899 81.5013 1.8558 84.0828 3.7116C86.685 5.54678 87.986 8.26862 87.986 11.8771C87.986 13.2174 87.6763 14.4855 87.0567 15.6815C86.4371 16.8775 85.6317 17.9291 84.6404 18.8364C83.6491 19.723 82.5958 20.4035 81.4806 20.8777C83.835 21.6201 85.7763 22.9501 87.3045 24.8677C88.8328 26.7854 89.5969 29.1257 89.5969 31.8888C89.5969 34.322 88.9773 36.4665 87.7382 38.3223C86.5197 40.1781 84.7746 41.6318 82.5029 42.6834C80.2311 43.7144 77.5464 44.2299 74.4485 44.2299H58.3398ZM66.3942 38.0748H73.1784C75.8839 38.0748 77.9078 37.5387 79.2502 36.4665C80.5926 35.3736 81.2638 33.7446 81.2638 31.5795C81.2638 29.4557 80.5926 27.8267 79.2502 26.6926C77.9284 25.5585 75.9148 24.9914 73.2094 24.9914H66.3942V38.0748ZM66.3942 19.1766H72.6828C74.1904 19.1766 75.5018 18.9292 76.617 18.4343C77.7322 17.9394 78.5996 17.228 79.2192 16.3001C79.8388 15.3516 80.1485 14.2278 80.1485 12.9287C80.1485 11.0317 79.4877 9.5883 78.1659 8.59854C76.8648 7.58816 74.9958 7.08297 72.5589 7.08297H66.3942V19.1766Z" fill="white"/>
<path d="M93.1347 44.2299L109.77 0.927899H118.754L135.73 44.2299H126.653L122.967 34.4251H105.526L101.964 44.2299H93.1347ZM107.509 27.5896H120.922L114.107 10.0213L107.509 27.5896Z" fill="white"/>
<path d="M160.362 45.1578C155.86 45.1578 151.915 44.2299 148.528 42.3741C145.141 40.5183 142.508 37.9099 140.629 34.5488C138.749 31.1671 137.81 27.1978 137.81 22.6408C137.81 19.3209 138.357 16.2898 139.452 13.5473C140.567 10.7843 142.136 8.39234 144.16 6.37158C146.205 4.3302 148.601 2.76308 151.347 1.67022C154.115 0.55674 157.151 0 160.455 0C163.862 0 166.774 0.43302 169.191 1.29906C171.607 2.14448 173.755 3.35075 175.634 4.91787L171.514 11.506C170.192 10.2481 168.643 9.32024 166.867 8.72226C165.112 8.10366 163.16 7.79436 161.012 7.79436C158.72 7.79436 156.665 8.13459 154.848 8.81505C153.03 9.49551 151.481 10.4853 150.201 11.7843C148.921 13.0628 147.94 14.6093 147.258 16.4238C146.577 18.2384 146.236 20.2798 146.236 22.548C146.236 25.6616 146.845 28.3216 148.064 30.5279C149.282 32.7136 151.017 34.3942 153.268 35.5695C155.519 36.7448 158.193 37.3325 161.291 37.3325C163.377 37.3325 165.411 37.0129 167.394 36.3737C169.397 35.7345 171.287 34.7138 173.063 33.3116L176.78 40.0853C174.715 41.6936 172.32 42.9411 169.593 43.8278C166.888 44.7145 163.811 45.1578 160.362 45.1578Z" fill="white"/>
<path d="M198.65 44.2299V0.927899H227.49V7.97994H206.704V18.4652H224.486V25.0533H206.704V37.116H227.707V44.2299H198.65Z" fill="white"/>
<path d="M288.354 44.2299V8.28924H276.365V0.927899H308.428V8.28924H296.439V44.2299H288.354Z" fill="white"/>
<path d="M315.423 44.2299V0.927899H323.478V16.9496H331.687C334.805 16.9496 337.562 17.4961 339.958 18.5889C342.374 19.6612 344.274 21.218 345.658 23.2594C347.042 25.3007 347.734 27.7545 347.734 30.6207C347.734 32.8064 347.372 34.7447 346.649 36.4355C345.926 38.1264 344.873 39.5492 343.49 40.7039C342.106 41.8586 340.402 42.7349 338.378 43.3329C336.375 43.9309 334.082 44.2299 331.501 44.2299H315.423ZM323.478 37.3944H331.47C334.051 37.3944 336.065 36.8582 337.511 35.786C338.956 34.7138 339.679 33.0435 339.679 30.7753C339.679 28.5071 338.936 26.806 337.449 25.6719C335.982 24.5172 334.01 23.9398 331.532 23.9398H323.478V37.3944Z" fill="white"/>
<path d="M370.059 44.2299V0.927899H378.051V31.2702L398.373 0.927899H406.241V44.2299H398.249V13.6401L377.865 44.2299H370.059Z" fill="white"/>
<path d="M417.192 44.2299V0.927899H425.246V17.7538H444.948V0.927899H453.003V44.2299H444.948V25.1152H425.246V44.2299H417.192Z" fill="white"/>
<path d="M471.985 44.2299V8.28924H459.996V0.927899H492.059V8.28924H480.07V44.2299H471.985Z" fill="white"/>
<path d="M499.054 44.2299V0.927899H527.895V7.97994H507.109V18.4652H524.89V25.0533H507.109V37.116H528.112V44.2299H499.054Z" fill="white"/>
<path d="M537.474 44.2299V0.927899H553.738C556.857 0.927899 559.624 1.47433 562.04 2.56719C564.457 3.63943 566.346 5.19624 567.709 7.23762C569.093 9.279 569.785 11.7328 569.785 14.599C569.785 17.5064 569.145 19.9705 567.864 21.9912C566.604 24.012 564.766 25.5585 562.35 26.6307C559.934 27.6823 557.001 28.2082 553.552 28.2082H545.529V44.2299H537.474ZM545.529 21.3726H553.521C556.103 21.3726 558.116 20.8365 559.562 19.7643C561.008 18.692 561.73 17.0218 561.73 14.7536C561.73 12.4854 560.987 10.7843 559.5 9.65016C558.034 8.49544 556.061 7.91808 553.583 7.91808H545.529V21.3726Z" fill="white"/>
<path d="M577.226 44.2299V0.927899H606.067V7.97994H585.28V18.4652H603.062V25.0533H585.28V37.116H606.284V44.2299H577.226Z" fill="white"/>
<path d="M635.503 45.1578C631.001 45.1578 627.057 44.2299 623.67 42.3741C620.283 40.5183 617.649 37.9099 615.77 34.5488C613.891 31.1671 612.951 27.1978 612.951 22.6408C612.951 19.3209 613.498 16.2898 614.593 13.5473C615.708 10.7843 617.278 8.39234 619.302 6.37158C621.346 4.3302 623.742 2.76308 626.489 1.67022C629.256 0.55674 632.292 0 635.596 0C639.004 0 641.916 0.43302 644.332 1.29906C646.748 2.14448 648.896 3.35075 650.776 4.91787L646.656 11.506C645.334 10.2481 643.785 9.32024 642.009 8.72226C640.253 8.10366 638.302 7.79436 636.154 7.79436C633.861 7.79436 631.807 8.13459 629.989 8.81505C628.172 9.49551 626.623 10.4853 625.342 11.7843C624.062 13.0628 623.081 14.6093 622.399 16.4238C621.718 18.2384 621.377 20.2798 621.377 22.548C621.377 25.6616 621.986 28.3216 623.205 30.5279C624.423 32.7136 626.158 34.3942 628.409 35.5695C630.66 36.7448 633.335 37.3325 636.433 37.3325C638.518 37.3325 640.553 37.0129 642.535 36.3737C644.539 35.7345 646.428 34.7138 648.204 33.3116L651.922 40.0853C649.857 41.6936 647.461 42.9411 644.735 43.8278C642.029 44.7145 638.952 45.1578 635.503 45.1578Z" fill="white"/>
<path d="M658.907 44.2299V0.927899H666.961V17.7538H686.663V0.927899H694.718V44.2299H686.663V25.1152H666.961V44.2299H658.907Z" fill="white"/>
<path d="M745.862 44.2299L758.563 26.1668C755.259 25.4245 752.677 24.0223 750.818 21.9603C748.98 19.8983 748.061 17.2589 748.061 14.0422C748.061 11.2998 748.702 8.94908 749.982 6.99018C751.283 5.03128 753.111 3.53633 755.465 2.50533C757.84 1.45371 760.628 0.927899 763.829 0.927899H780V44.2299H771.946V27.2803H766.71L755.186 44.2299H745.862ZM764.015 20.6922H771.946V7.67064H764.356C761.795 7.67064 759.792 8.20676 758.346 9.279C756.901 10.3306 756.178 11.9184 756.178 14.0422C756.178 16.1867 756.839 17.8363 758.16 18.991C759.482 20.1251 761.434 20.6922 764.015 20.6922Z" fill="white"/>
<path d="M3.15978 137.02V93.7179H11.1522V124.06L31.4739 93.7179H39.3424V137.02H31.35V106.43L10.9663 137.02H3.15978Z" fill="white"/>
<path d="M78.483 137.02V101.079H62.746V106.523C62.746 111.657 62.4879 116.029 61.9715 119.637C61.4759 123.225 60.6808 126.184 59.5862 128.514C58.5123 130.824 57.077 132.638 55.2802 133.958C53.5042 135.277 51.3357 136.247 48.7748 136.865L45.9558 130.246C47.7938 129.813 49.3014 129.164 50.4786 128.298C51.6764 127.432 52.6058 126.143 53.2667 124.431C53.9275 122.72 54.3922 120.421 54.6607 117.534C54.9292 114.647 55.0634 110.977 55.0634 106.523V93.7179H86.5373V137.02H78.483ZM45.9558 148V130.246L51.0672 130.494L53.8552 129.659H93.4765V148H85.8558V137.02H53.5764V148H45.9558Z" fill="white"/>
<path d="M100.572 137.02V93.7179H129.413V100.77H108.626V111.255H126.408V117.843H108.626V129.906H129.63V137.02H100.572Z" fill="white"/>
<path d="M135.554 137.02L148.255 118.957C144.95 118.214 142.369 116.812 140.51 114.75C138.672 112.688 137.753 110.049 137.753 106.832C137.753 104.09 138.393 101.739 139.674 99.7801C140.975 97.8213 142.803 96.3263 145.157 95.2953C147.532 94.2437 150.32 93.7179 153.521 93.7179H169.692V137.02H161.637V120.07H156.402L144.878 137.02H135.554ZM153.707 113.482H161.637V100.461H154.048C151.487 100.461 149.484 100.997 148.038 102.069C146.592 103.121 145.869 104.708 145.869 106.832C145.869 108.977 146.53 110.626 147.852 111.781C149.174 112.915 151.125 113.482 153.707 113.482Z" fill="white"/>
<path d="M185.235 123.07C184.698 120.823 184.502 118.998 184.646 117.596C184.791 116.173 185.256 114.977 186.04 114.008C186.846 113.039 187.951 112.101 189.355 111.193C191.338 109.915 192.66 108.843 193.32 107.977C193.981 107.111 194.312 106.152 194.312 105.1C194.312 103.451 193.723 102.224 192.546 101.419C191.389 100.595 189.717 100.182 187.527 100.182C185.917 100.182 184.45 100.409 183.129 100.863C181.827 101.316 180.568 101.956 179.349 102.78L177.46 96.2541C178.079 95.6974 178.967 95.1613 180.124 94.6458C181.28 94.1096 182.643 93.6663 184.213 93.3158C185.782 92.9652 187.476 92.79 189.293 92.79C191.978 92.79 194.384 93.223 196.511 94.089C198.638 94.9551 200.311 96.1923 201.53 97.8006C202.769 99.409 203.388 101.316 203.388 103.523C203.388 104.781 203.161 105.956 202.707 107.049C202.252 108.142 201.488 109.224 200.414 110.296C199.361 111.369 197.926 112.513 196.108 113.73C194.849 114.554 193.919 115.348 193.32 116.111C192.742 116.874 192.412 117.792 192.329 118.864C192.267 119.916 192.36 121.318 192.608 123.07H185.235ZM189.169 137.948C187.724 137.948 186.474 137.494 185.421 136.587C184.368 135.659 183.841 134.432 183.841 132.906C183.841 131.875 184.079 130.978 184.554 130.215C185.049 129.452 185.7 128.865 186.505 128.452C187.311 128.04 188.199 127.834 189.169 127.834C190.636 127.834 191.885 128.298 192.918 129.225C193.971 130.133 194.498 131.36 194.498 132.906C194.498 133.917 194.25 134.803 193.754 135.566C193.279 136.329 192.639 136.917 191.833 137.329C191.028 137.742 190.14 137.948 189.169 137.948Z" fill="white"/>
</svg>
