<svg width="780" height="135" viewBox="0 0 780 135" fill="none" xmlns="http://www.w3.org/2000/svg">
<path d="M534.87 91C541.633 91 548.119 93.2125 552.901 97.1508C557.683 101.089 560.37 106.43 560.37 112C560.37 117.57 557.683 122.911 552.901 126.849C548.119 130.788 541.633 133 534.87 133L534.87 112L534.87 91Z" fill="#198F76"/>
<path d="M4.82977 43.0637V1.00095H17.9692C22.149 1.00095 25.8388 1.9023 29.0386 3.70499C32.2385 5.48765 34.7384 7.96134 36.5383 11.1261C38.3582 14.2908 39.2682 17.9362 39.2682 22.0624C39.2682 25.127 38.7482 27.9512 37.7082 30.535C36.6883 33.0989 35.2284 35.3122 33.3284 37.1749C31.4285 39.0377 29.1786 40.4899 26.5788 41.5315C23.9789 42.553 21.109 43.0637 17.9692 43.0637H4.82977ZM11.5495 36.7844H17.1592C19.4191 36.7844 21.469 36.4539 23.3089 35.7929C25.1688 35.1119 26.7587 34.1304 28.0787 32.8485C29.4186 31.5666 30.4486 30.0243 31.1685 28.2216C31.8885 26.3989 32.2485 24.3458 32.2485 22.0624C32.2485 18.9978 31.6185 16.3639 30.3586 14.1606C29.1186 11.9373 27.3687 10.2347 25.1088 9.05297C22.8489 7.85118 20.1991 7.25028 17.1592 7.25028H11.5495V36.7844Z" fill="white"/>
<path d="M67.6862 43.9651C64.5264 43.9651 61.5965 43.4143 58.8966 42.3126C56.2167 41.1909 53.8769 39.6386 51.8769 37.6557C49.897 35.6727 48.3471 33.3492 47.2272 30.6853C46.1272 28.0213 45.5772 25.137 45.5772 22.0323C45.5772 18.9077 46.1272 16.0134 47.2272 13.3494C48.3471 10.6854 49.897 8.36194 51.8769 6.37898C53.8769 4.39602 56.2167 2.85372 58.8966 1.75207C61.5965 0.650431 64.5264 0.0996094 67.6862 0.0996094C70.8261 0.0996094 73.7359 0.660446 76.4158 1.78212C79.0957 2.90379 81.4356 4.46613 83.4355 6.46912C85.4354 8.47211 86.9853 10.8056 88.0853 13.4696C89.2052 16.1135 89.7652 18.9678 89.7652 22.0323C89.7652 25.137 89.2052 28.0213 88.0853 30.6853C86.9853 33.3492 85.4354 35.6727 83.4355 37.6557C81.4356 39.6386 79.0957 41.1909 76.4158 42.3126C73.7359 43.4143 70.8261 43.9651 67.6862 43.9651ZM67.6862 37.5956C69.8061 37.5956 71.776 37.235 73.5959 36.514C75.4358 35.7729 77.0358 34.7213 78.3957 33.3593C79.7556 31.9772 80.8156 30.3347 81.5756 28.4319C82.3555 26.509 82.7455 24.3758 82.7455 22.0323C82.7455 18.8877 82.0755 16.1536 80.7356 13.8301C79.4157 11.4866 77.6157 9.6739 75.3358 8.39199C73.056 7.11007 70.5061 6.46912 67.6862 6.46912C65.5663 6.46912 63.5864 6.83967 61.7465 7.58077C59.9266 8.30185 58.3266 9.34341 56.9467 10.7054C55.5868 12.0675 54.5168 13.7099 53.7369 15.6328C52.9769 17.5356 52.5969 19.6688 52.5969 22.0323C52.5969 25.177 53.2669 27.9211 54.6068 30.2646C55.9468 32.5881 57.7467 34.3908 60.0066 35.6727C62.2865 36.9546 64.8463 37.5956 67.6862 37.5956Z" fill="white"/>
<path d="M122.504 43.0637V24.8866L107.685 1.00095H115.364L126.014 18.3969L136.603 1.00095H144.073L129.254 24.9467V43.0637H122.504Z" fill="white"/>
<path d="M166.998 43.9651C163.838 43.9651 160.908 43.4143 158.208 42.3126C155.529 41.1909 153.189 39.6386 151.189 37.6557C149.209 35.6727 147.659 33.3492 146.539 30.6853C145.439 28.0213 144.889 25.137 144.889 22.0323C144.889 18.9077 145.439 16.0134 146.539 13.3494C147.659 10.6854 149.209 8.36194 151.189 6.37898C153.189 4.39602 155.529 2.85372 158.208 1.75207C160.908 0.650431 163.838 0.0996094 166.998 0.0996094C170.138 0.0996094 173.048 0.660446 175.728 1.78212C178.407 2.90379 180.747 4.46613 182.747 6.46912C184.747 8.47211 186.297 10.8056 187.397 13.4696C188.517 16.1135 189.077 18.9678 189.077 22.0323C189.077 25.137 188.517 28.0213 187.397 30.6853C186.297 33.3492 184.747 35.6727 182.747 37.6557C180.747 39.6386 178.407 41.1909 175.728 42.3126C173.048 43.4143 170.138 43.9651 166.998 43.9651ZM166.998 37.5956C169.118 37.5956 171.088 37.235 172.908 36.514C174.748 35.7729 176.348 34.7213 177.707 33.3593C179.067 31.9772 180.127 30.3347 180.887 28.4319C181.667 26.509 182.057 24.3758 182.057 22.0323C182.057 18.8877 181.387 16.1536 180.047 13.8301C178.727 11.4866 176.927 9.6739 174.648 8.39199C172.368 7.11007 169.818 6.46912 166.998 6.46912C164.878 6.46912 162.898 6.83967 161.058 7.58077C159.238 8.30185 157.638 9.34341 156.258 10.7054C154.899 12.0675 153.829 13.7099 153.049 15.6328C152.289 17.5356 151.909 19.6688 151.909 22.0323C151.909 25.177 152.579 27.9211 153.919 30.2646C155.258 32.5881 157.058 34.3908 159.318 35.6727C161.598 36.9546 164.158 37.5956 166.998 37.5956Z" fill="white"/>
<path d="M214.069 43.9651C210.329 43.9651 207.199 43.2039 204.679 41.6817C202.18 40.1594 200.29 38.0963 199.01 35.4924C197.75 32.8685 197.12 29.9241 197.12 26.6593V1.00095H203.84V26.5992C203.84 30.3047 204.759 33.0688 206.599 34.8915C208.439 36.6942 210.929 37.5956 214.069 37.5956C217.209 37.5956 219.699 36.6942 221.539 34.8915C223.379 33.0688 224.299 30.3047 224.299 26.5992V1.00095H231.048V26.6593C231.048 29.9041 230.408 32.8385 229.128 35.4624C227.868 38.0663 225.978 40.1394 223.459 41.6817C220.959 43.2039 217.829 43.9651 214.069 43.9651Z" fill="white"/>
<path d="M256.42 43.0637V1.00095H263.139V17.7059H283.478V1.00095H290.198V43.0637H283.478V23.8951H263.139V43.0637H256.42Z" fill="white"/>
<path d="M351.917 43.0637L335.778 1.00095H343.338L355.607 34.0803L367.397 1.00095H374.806L359.087 43.0637H351.917Z" fill="white"/>
<path d="M380.574 43.0637V1.00095H407.723V6.94983H387.294V18.3068H404.933V23.9252H387.294V37.0548H407.903V43.0637H380.574Z" fill="white"/>
<path d="M0 133.198L16.3192 91.1355H23.6089L40.3481 133.198H32.7585L28.8886 123.163H11.0995L7.37965 133.198H0ZM12.8394 117.365H27.0887L19.8291 99.0373L12.8394 117.365Z" fill="white"/>
<path d="M46.4294 133.198V91.1355H52.8491L74.0581 121.691V91.1355H80.5978V133.198H74.1781L52.9991 102.282V133.198H46.4294Z" fill="white"/>
<path d="M106.251 133.198V91.1355H112.97V133.198H106.251Z" fill="white"/>
<path d="M123.945 133.198V91.1355H130.365L151.574 121.691V91.1355H158.114V133.198H151.694L130.515 102.282V133.198H123.945Z" fill="white"/>
<path d="M177.04 133.198V97.2947H165.221V91.1355H195.579V97.2947H183.76V133.198H177.04Z" fill="white"/>
<path d="M202.633 133.198V91.1355H229.782V97.0844H209.353V108.441H226.992V114.06H209.353V127.189H229.962V133.198H202.633Z" fill="white"/>
<path d="M239.37 133.198V91.1355H255.239C258.159 91.1355 260.679 91.6462 262.798 92.6678C264.938 93.6693 266.588 95.1014 267.748 96.9642C268.928 98.827 269.518 101.04 269.518 103.604C269.518 105.687 269.068 107.53 268.168 109.132C267.288 110.735 266.048 112.057 264.448 113.098C262.848 114.12 260.999 114.811 258.899 115.171L271.558 133.198H263.428L251.819 116.223H246.089V133.198H239.37ZM246.089 110.635H254.129C256.849 110.635 258.959 110.054 260.459 108.892C261.979 107.73 262.738 106.068 262.738 103.905C262.738 101.681 262.059 99.9486 260.699 98.7068C259.359 97.4649 257.329 96.844 254.609 96.844H246.089V110.635Z" fill="white"/>
<path d="M279.211 133.198V91.1355H306.36V97.0844H285.931V108.441H303.57V114.06H285.931V127.189H306.54V133.198H279.211Z" fill="white"/>
<path d="M329.627 134.1C326.728 134.1 323.888 133.689 321.108 132.868C318.348 132.027 316.018 130.825 314.118 129.262L317.418 124.125C318.418 124.986 319.578 125.727 320.898 126.348C322.238 126.969 323.658 127.45 325.158 127.79C326.658 128.111 328.157 128.271 329.657 128.271C332.397 128.271 334.607 127.75 336.287 126.709C337.987 125.667 338.837 124.145 338.837 122.142C338.837 120.64 338.257 119.368 337.097 118.326C335.957 117.285 333.837 116.323 330.737 115.442L326.418 114.18C322.458 113.038 319.568 111.526 317.748 109.643C315.948 107.76 315.048 105.417 315.048 102.613C315.048 100.75 315.418 99.0673 316.158 97.5651C316.918 96.0628 317.978 94.7609 319.338 93.6592C320.718 92.5576 322.338 91.7164 324.198 91.1355C326.058 90.5546 328.097 90.2642 330.317 90.2642C333.137 90.2642 335.757 90.6748 338.177 91.496C340.597 92.3172 342.597 93.4189 344.177 94.8009L340.757 99.7884C339.897 99.0072 338.887 98.3362 337.727 97.7754C336.587 97.2146 335.357 96.7839 334.037 96.4835C332.717 96.183 331.377 96.0328 330.017 96.0328C328.337 96.0328 326.847 96.2832 325.548 96.7839C324.268 97.2646 323.268 97.9657 322.548 98.8871C321.828 99.8084 321.468 100.93 321.468 102.252C321.468 103.214 321.708 104.055 322.188 104.776C322.668 105.497 323.488 106.158 324.648 106.759C325.828 107.34 327.447 107.931 329.507 108.531L334.067 109.883C337.947 111.025 340.787 112.517 342.587 114.36C344.387 116.183 345.287 118.556 345.287 121.481C345.287 123.985 344.667 126.188 343.427 128.091C342.207 129.973 340.427 131.446 338.087 132.507C335.747 133.569 332.927 134.1 329.627 134.1Z" fill="white"/>
<path d="M361.602 133.198V97.2947H349.782V91.1355H380.141V97.2947H368.321V133.198H361.602Z" fill="white"/>
<path d="M387.195 133.198V91.1355H393.914V133.198H387.195Z" fill="white"/>
<path d="M404.889 133.198V91.1355H411.309L432.518 121.691V91.1355H439.058V133.198H432.638L411.459 102.282V133.198H404.889Z" fill="white"/>
<path d="M470.853 134.1C467.513 134.1 464.424 133.589 461.584 132.567C458.744 131.546 456.254 130.084 454.114 128.181C451.994 126.258 450.344 123.954 449.164 121.27C447.984 118.586 447.394 115.572 447.394 112.227C447.394 108.902 447.964 105.898 449.104 103.214C450.244 100.509 451.834 98.196 453.874 96.2731C455.934 94.3302 458.344 92.838 461.104 91.7965C463.884 90.7549 466.913 90.2341 470.193 90.2341C471.713 90.2341 473.253 90.3543 474.813 90.5947C476.373 90.835 477.903 91.2356 479.403 91.7965C480.923 92.3373 482.363 93.0784 483.723 94.0198L480.783 99.3077C479.263 98.3462 477.613 97.6252 475.833 97.1445C474.073 96.6637 472.253 96.4234 470.373 96.4234C467.933 96.4234 465.724 96.7939 463.744 97.535C461.764 98.2561 460.074 99.3077 458.674 100.69C457.274 102.052 456.194 103.704 455.434 105.647C454.694 107.59 454.324 109.773 454.324 112.197C454.324 115.602 455.044 118.496 456.484 120.88C457.924 123.263 459.904 125.076 462.424 126.318C464.964 127.54 467.883 128.151 471.183 128.151C472.803 128.151 474.263 128.001 475.563 127.7C476.863 127.38 477.913 127.019 478.713 126.618V116.463H469.173V110.875H484.743V130.524C483.643 131.265 482.263 131.906 480.603 132.447C478.963 132.988 477.263 133.399 475.503 133.679C473.763 133.959 472.213 134.1 470.853 134.1Z" fill="white"/>
<path d="M509.767 133.198V91.1355H516.487V133.198H509.767Z" fill="white"/>
<path d="M570.233 133.198V91.1355H597.382V97.0844H576.953V108.441H594.592V114.06H576.953V127.189H597.562V133.198H570.233Z" fill="white"/>
<path d="M602.14 133.198L618.459 91.1355H625.749L642.488 133.198H634.898L631.028 123.163H613.239L609.519 133.198H602.14ZM614.979 117.365H629.229L621.969 99.0373L614.979 117.365Z" fill="white"/>
<path d="M650.111 120.189C649.591 117.966 649.391 116.153 649.511 114.751C649.651 113.329 650.121 112.127 650.921 111.145C651.721 110.164 652.871 109.192 654.371 108.231C656.43 106.909 657.8 105.787 658.48 104.866C659.16 103.945 659.5 102.923 659.5 101.801C659.5 100.019 658.87 98.6868 657.61 97.8054C656.35 96.9041 654.581 96.4534 652.301 96.4534C650.661 96.4534 649.181 96.6838 647.861 97.1445C646.541 97.6051 645.331 98.2461 644.231 99.0673L642.491 93.5691C643.151 92.9882 644.031 92.4474 645.131 91.9467C646.231 91.4259 647.501 91.0153 648.941 90.7149C650.381 90.3944 651.931 90.2341 653.591 90.2341C656.151 90.2341 658.44 90.6548 660.46 91.496C662.48 92.3172 664.07 93.509 665.23 95.0714C666.41 96.6137 667 98.4564 667 100.6C667 101.821 666.78 102.973 666.34 104.055C665.92 105.116 665.19 106.178 664.15 107.24C663.11 108.301 661.69 109.433 659.89 110.635C658.61 111.476 657.67 112.287 657.07 113.068C656.471 113.829 656.13 114.761 656.05 115.862C655.97 116.944 656.07 118.386 656.35 120.189H650.111ZM653.501 134.1C652.221 134.1 651.121 133.689 650.201 132.868C649.281 132.047 648.821 130.975 648.821 129.653C648.821 128.752 649.031 127.97 649.451 127.309C649.871 126.628 650.431 126.108 651.131 125.747C651.851 125.367 652.641 125.176 653.501 125.176C654.801 125.176 655.911 125.587 656.831 126.408C657.75 127.209 658.21 128.291 658.21 129.653C658.21 130.534 657.99 131.315 657.55 131.996C657.13 132.657 656.561 133.168 655.841 133.529C655.141 133.909 654.361 134.1 653.501 134.1Z" fill="white"/>
<path d="M317.37 0L338.155 43.5H296.585L317.37 0Z" fill="#799FCC"/>
</svg>
