<svg width="199" height="130" viewBox="0 0 199 130" fill="none" xmlns="http://www.w3.org/2000/svg">
<path d="M40 40.041H52.3384C57.3652 40.041 61.1353 42.6197 61.1353 47.9921C61.1353 53.3645 57.3652 55.9432 52.3384 55.9432H46.6262V60.1336H40V40.041ZM46.6262 45.4134V50.5708H51.653C53.0239 50.7857 54.2806 49.9261 54.5091 48.6368C54.5091 48.4219 54.5091 48.207 54.5091 48.0995C54.6233 46.8102 53.5951 45.6283 52.2242 45.4134C51.9957 45.4134 51.8814 45.4134 51.653 45.4134H46.6262Z" fill="#171717"/>
<path d="M50.5676 52.8268C53.2205 52.8268 55.3711 50.7824 55.3711 48.2603C55.3711 45.7383 53.2205 43.6938 50.5676 43.6938C47.9147 43.6938 45.7642 45.7383 45.7642 48.2603C45.7642 50.7824 47.9147 52.8268 50.5676 52.8268Z" fill="#C15191"/>
<path d="M75.5457 60.9417C81.382 60.9417 86.1133 56.278 86.1133 50.5251C86.1133 44.7721 81.382 40.1084 75.5457 40.1084C69.7093 40.1084 64.978 44.7721 64.978 50.5251C64.978 56.278 69.7093 60.9417 75.5457 60.9417Z" fill="#C15191"/>
<path d="M89.9561 40.041H95.7202V60.1336H89.9561V40.041Z" fill="#171717"/>
<path d="M99.563 40.041H105.981L114.17 50.7286V40.041H120.698V60.1336H114.17L105.981 49.5529V60.0267H99.563V40.041Z" fill="#171717"/>
<path d="M129.744 45.3848H122.62V40.041H143.755V45.3848H136.631V60.1336H129.744V45.3848Z" fill="#171717"/>
<path d="M147.086 52.5714C149.842 53.9464 152.916 54.6339 155.99 54.7321C157.686 54.7321 158.64 54.3393 158.64 53.8482C158.64 51.8839 145.708 52.4732 145.708 45.6964C145.708 42.4554 149.206 40 155.248 40C161.29 40 164.258 42.2589 164.258 42.2589L161.82 46.3839C159.594 45.4018 157.262 44.8125 154.824 44.7143C153.128 44.7143 152.068 45.1071 152.068 45.6964C152.068 47.6607 165 46.9732 165 53.9464C165 56.5982 162.244 59.6429 155.778 59.6429C152.068 59.6429 148.464 58.9554 145.073 57.4821L147.086 52.5714Z" fill="#171717"/>
<path d="M50.5676 89.9998H40V70.3569H50.5676C56.4136 70.3569 61.1353 74.7687 61.1353 80.2309C61.1353 85.588 56.4136 89.9998 50.5676 89.9998Z" fill="#C15191"/>
<path d="M145.299 70.3569H163.188V75.5596H151.866V78.0017H162.283V82.355H151.753V84.7971H163.075V89.9998H145.073L145.299 70.3569Z" fill="#171717"/>
<path d="M129.782 89.9998C127.616 89.9998 125.775 89.5884 124.259 88.8685C122.743 88.1486 121.66 87.1202 120.902 85.8861C120.143 84.5492 119.71 83.1094 119.71 81.361V70.3569H126.208V81.7724C126.208 82.8008 126.533 83.6236 127.075 84.1378C127.725 84.652 128.591 84.8577 129.674 84.8577C130.757 84.8577 131.623 84.652 132.273 84.1378C132.923 83.6236 133.14 82.8008 133.14 81.7724V70.3569H139.638V81.4639C139.638 83.2122 139.205 84.652 138.446 85.9889C137.688 87.3259 136.605 88.2515 135.089 89.0742C133.789 89.6913 131.948 89.9998 129.782 89.9998Z" fill="#171717"/>
<path d="M99.6986 70.3569L104.748 84.1487H105.57L110.619 70.3569H117.898L109.914 89.9998H100.521L92.5361 70.3569H99.6986Z" fill="#171717"/>
<path d="M65.1942 70.3569H82.2705V75.5596H71.4627V78.0017H81.4059V82.355H71.3546V84.7971H82.1624V89.9998H64.978L65.1942 70.3569Z" fill="#171717"/>
</svg>
