<svg width="180" height="190" viewBox="0 0 180 190" fill="none" xmlns="http://www.w3.org/2000/svg">
<g clip-path="url(#clip0_783_2974)">
<path d="M124.378 135.092H120.824V132.274H118.83L116.888 135.092H112.7L115.414 131.52C114.655 131.234 114.006 130.715 113.56 130.037C113.115 129.36 112.896 128.558 112.935 127.747C112.935 124.782 114.928 123.603 117.547 123.603H124.395L124.378 135.092ZM117.85 126.664C117.666 126.644 117.481 126.665 117.306 126.725C117.132 126.786 116.973 126.884 116.841 127.014C116.709 127.143 116.607 127.3 116.544 127.473C116.48 127.647 116.455 127.832 116.472 128.016C116.472 128.883 116.992 129.3 117.85 129.3H120.824V126.698L117.85 126.664Z" fill="white"/>
<path d="M111.435 135.092H107.88V129.074L103.346 135.092H99.7919V123.603H103.346V129.716L107.88 123.603H111.435V135.092Z" fill="white"/>
<path d="M118.76 130.392C120.187 130.392 121.344 129.239 121.344 127.817C121.344 126.394 120.187 125.241 118.76 125.241C117.334 125.241 116.177 126.394 116.177 127.817C116.177 129.239 117.334 130.392 118.76 130.392Z" fill="#198F76"/>
<path d="M94.495 130.878H89.8396V135.092H86.2852V123.603H89.8396V127.817H94.495V123.603H98.0494V135.092H94.495V130.878Z" fill="white"/>
<path d="M74.8245 123.603H84.6121V126.664H78.3789V128.086H84.0919V130.6H78.3789V132.031H84.6121V135.092H74.8245V123.603Z" fill="white"/>
<path d="M62.0633 123.603H68.6866C71.3828 123.603 73.42 125.085 73.42 128.146C73.42 131.207 71.3828 132.673 68.6866 132.673H65.6177V135.075H62.0633V123.603ZM65.6177 126.664V129.621H68.3138C68.5155 129.65 68.7213 129.634 68.9156 129.573C69.11 129.511 69.2878 129.406 69.4357 129.266C69.5835 129.125 69.6975 128.953 69.769 128.762C69.8405 128.571 69.8676 128.367 69.8483 128.164C69.8678 127.959 69.8413 127.752 69.7706 127.559C69.6998 127.366 69.5868 127.191 69.4396 127.047C69.2924 126.903 69.115 126.794 68.9201 126.727C68.7253 126.661 68.5182 126.639 68.3138 126.664H65.6177Z" fill="white"/>
<path d="M53.3594 128.242H55.2406C56.1075 128.242 56.723 127.722 56.723 127.08C56.723 126.439 56.0989 126.022 54.9892 126.022C53.8795 126.022 52.9779 126.56 52.9779 127.384L49.6663 127.106C49.961 124.748 51.6775 123.204 55.3186 123.204C58.2922 123.204 60 124.531 60 126.439C60.0221 127.027 59.8626 127.608 59.5431 128.103C59.2236 128.598 58.7596 128.983 58.2142 129.205C58.8655 129.334 59.4502 129.689 59.8644 130.208C60.2786 130.727 60.4956 131.376 60.4768 132.04C60.4768 134.035 58.8123 135.509 55.4573 135.509C51.6429 135.509 49.9697 133.974 49.6749 131.598L52.9866 131.329C52.9866 132.11 53.9055 132.691 55.1366 132.691C56.3676 132.691 57.0351 132.292 57.0351 131.555C57.0351 130.818 56.2636 130.471 55.1626 130.471H53.3594V128.242Z" fill="white"/>
<path d="M67.3428 130.653C68.7696 130.653 69.9263 129.5 69.9263 128.077C69.9263 126.655 68.7696 125.502 67.3428 125.502C65.916 125.502 64.7594 126.655 64.7594 128.077C64.7594 129.5 65.916 130.653 67.3428 130.653Z" fill="#198F76"/>
<path d="M113.429 116.718H109.874V110.691L105.34 116.718H101.786V105.22H105.34V111.29L109.874 105.22H113.429V116.718Z" fill="white"/>
<path d="M88.7126 105.22H92.267V109.469H93.6281L96.3936 105.22H100.373L96.5583 110.709L100.676 116.718H96.541L93.6281 112.382H92.3017V116.718H88.7473L88.7126 105.22Z" fill="white"/>
<path d="M87.0048 116.718H83.4417V113.909C82.6945 114.251 81.8794 114.42 81.0576 114.403C77.5899 114.403 75.5873 112.868 75.5873 109.408V105.22H79.1591V109.555C79.1591 110.874 79.8786 111.454 81.1443 111.454C81.938 111.46 82.7228 111.288 83.4417 110.952V105.22H87.0048V116.718Z" fill="white"/>
<path d="M53.0039 108.289H49.3455V105.22H60.2167V108.289H56.5583V116.718H53.0039V108.289Z" fill="white"/>
<path d="M158.726 140.858C170.475 140.858 180 131.351 180 119.622C180 107.894 170.475 98.3857 158.726 98.3857C146.976 98.3857 137.451 107.894 137.451 119.622C137.451 131.351 146.976 140.858 158.726 140.858Z" fill="#198F76"/>
<path d="M70.6285 190C82.3541 190 91.8595 180.492 91.8595 168.764C91.8595 157.035 82.3541 147.527 70.6285 147.527C58.9029 147.527 49.3975 157.035 49.3975 168.764C49.3975 180.492 58.9029 190 70.6285 190Z" fill="white"/>
<path d="M21.5518 189.817C33.2774 189.817 42.7828 180.31 42.7828 168.581C42.7828 156.853 33.2774 147.345 21.5518 147.345C9.8262 147.345 0.32074 156.853 0.32074 168.581C0.32074 180.31 9.8262 189.817 21.5518 189.817Z" fill="white"/>
<path d="M67.4989 117.559C71.1281 117.559 74.0702 114.62 74.0702 110.995C74.0702 107.37 71.1281 104.431 67.4989 104.431C63.8697 104.431 60.9276 107.37 60.9276 110.995C60.9276 114.62 63.8697 117.559 67.4989 117.559Z" fill="#198F76"/>
<path d="M21.2744 140.807C33.0239 140.807 42.5488 131.299 42.5488 119.57C42.5488 107.842 33.0239 98.334 21.2744 98.334C9.52487 98.334 0 107.842 0 119.57C0 131.299 9.52487 140.807 21.2744 140.807Z" fill="white"/>
<path d="M21.5344 91.6749C33.26 91.6749 42.7655 82.167 42.7655 70.4385C42.7655 58.71 33.26 49.2021 21.5344 49.2021C9.80886 49.2021 0.303406 58.71 0.303406 70.4385C0.303406 82.167 9.80886 91.6749 21.5344 91.6749Z" fill="white"/>
<path d="M70.7412 91.6309C82.4668 91.6309 91.9723 82.1231 91.9723 70.3946C91.9723 58.666 82.4668 49.1582 70.7412 49.1582C59.0156 49.1582 49.5102 58.666 49.5102 70.3946C49.5102 82.1231 59.0156 91.6309 70.7412 91.6309Z" fill="white"/>
<path d="M70.6806 42.4727C82.4061 42.4727 91.9116 32.9649 91.9116 21.2364C91.9116 9.50784 82.4061 0 70.6806 0C58.955 0 49.4495 9.50784 49.4495 21.2364C49.4495 32.9649 58.955 42.4727 70.6806 42.4727Z" fill="white"/>
<path d="M21.5431 42.5421C33.2687 42.5421 42.7741 33.0342 42.7741 21.3057C42.7741 9.57718 33.2687 0.0693359 21.5431 0.0693359C9.81753 0.0693359 0.312073 9.57718 0.312073 21.3057C0.312073 33.0342 9.81753 42.5421 21.5431 42.5421Z" fill="white"/>
</g>
<defs>
<clipPath id="clip0_783_2974">
<rect width="180" height="190" fill="white"/>
</clipPath>
</defs>
</svg>
