<svg width="180" height="190" viewBox="0 0 180 190" fill="none" xmlns="http://www.w3.org/2000/svg">
<g clip-path="url(#clip0_870_1302)">
<path d="M48.4739 105.884H54.9371C57.6301 105.884 59.569 107.415 59.569 110.478C59.569 113.541 57.5224 114.963 54.9371 114.963H51.9209V117.369H48.4739V105.884ZM52.0286 108.947V111.9H54.7216C55.4757 112.009 56.122 111.462 56.2297 110.806C56.2297 110.697 56.2297 110.587 56.2297 110.478C56.3374 109.712 55.7988 109.056 55.0448 108.947C54.9371 108.947 54.8294 108.947 54.7216 108.947H52.0286Z" fill="white"/>
<path d="M74.9731 105.884H78.5279V117.369H74.9731V105.884Z" fill="white"/>
<path d="M80.3592 105.884H83.9139L88.4382 112.009V105.884H91.9929V117.369H88.3305L83.8062 111.353V117.369H80.2515V105.884H80.3592Z" fill="white"/>
<path d="M96.7325 108.947H93.1777V105.884H103.842V108.947H100.18V117.369H96.7325V108.947Z" fill="white"/>
<path d="M105.996 113.322C107.612 114.197 109.336 114.634 111.059 114.744C112.029 114.744 112.567 114.525 112.567 114.197C112.567 112.993 105.242 113.322 105.242 109.056C105.242 106.977 107.181 105.446 110.628 105.446C112.46 105.337 114.291 105.774 115.799 106.868L114.399 109.493C113.106 108.837 111.813 108.509 110.413 108.509C109.443 108.509 108.905 108.728 108.905 109.165C108.905 110.368 116.23 109.931 116.23 114.306C116.23 115.947 114.614 117.806 111.059 117.806C108.905 117.806 106.858 117.369 104.919 116.494L105.996 113.322Z" fill="white"/>
<path d="M80.4667 124.26L83.052 132.354H83.4829L86.0682 124.26H89.8384L85.745 135.745H80.7899L76.6965 124.26H80.4667Z" fill="white"/>
<path d="M104.704 124.26H114.398V127.323H108.258V128.745H113.86V131.26H108.151V132.682H114.291V135.745H104.596L104.704 124.26Z" fill="white"/>
<path d="M61.6158 124.15H71.3106V127.213H65.1705V128.635H70.772V131.151H65.0628V132.573H71.2028V135.636H61.5081L61.6158 124.15Z" fill="white"/>
<path d="M96.9479 136.292C95.6553 136.292 94.6858 136.073 93.824 135.636C92.9623 135.198 92.316 134.542 91.8851 133.776C91.4542 133.01 91.2388 132.026 91.2388 131.042V124.26H95.009V131.26C95.009 131.917 95.2244 132.354 95.5476 132.682C95.8707 133.01 96.4093 133.12 97.0556 133.12C97.702 133.12 98.2406 133.01 98.5637 132.682C98.8869 132.354 99.1023 131.917 99.1023 131.26V124.26H102.873V131.042C102.873 132.135 102.657 133.01 102.226 133.776C101.795 134.542 101.149 135.198 100.287 135.636C99.21 136.073 98.1328 136.292 96.9479 136.292Z" fill="white"/>
<path d="M20.8977 42.5504C32.4391 42.5504 41.7953 33.0496 41.7953 21.3299C41.7953 9.61011 32.4391 0.109375 20.8977 0.109375C9.3562 0.109375 0 9.61011 0 21.3299C0 33.0496 9.3562 42.5504 20.8977 42.5504Z" fill="white"/>
<path d="M69.2639 42.441C80.8053 42.441 90.1615 32.9403 90.1615 21.2205C90.1615 9.50074 80.8053 0 69.2639 0C57.7224 0 48.3662 9.50074 48.3662 21.2205C48.3662 32.9403 57.7224 42.441 69.2639 42.441Z" fill="white"/>
<path d="M69.3715 91.5543C80.913 91.5543 90.2692 82.0535 90.2692 70.3338C90.2692 58.614 80.913 49.1133 69.3715 49.1133C57.8301 49.1133 48.4739 58.614 48.4739 70.3338C48.4739 82.0535 57.8301 91.5543 69.3715 91.5543Z" fill="#198F76"/>
<path d="M20.8977 91.6636C32.4391 91.6636 41.7953 82.1629 41.7953 70.4432C41.7953 58.7234 32.4391 49.2227 20.8977 49.2227C9.3562 49.2227 0 58.7234 0 70.4432C0 82.1629 9.3562 91.6636 20.8977 91.6636Z" fill="white"/>
<path d="M20.8977 140.777C32.4391 140.777 41.7953 131.276 41.7953 119.556C41.7953 107.837 32.4391 98.3359 20.8977 98.3359C9.3562 98.3359 0 107.837 0 119.556C0 131.276 9.3562 140.777 20.8977 140.777Z" fill="#198F76"/>
<path d="M67.1094 118.354C70.679 118.354 73.5726 115.415 73.5726 111.791C73.5726 108.166 70.679 105.228 67.1094 105.228C63.5399 105.228 60.6462 108.166 60.6462 111.791C60.6462 115.415 63.5399 118.354 67.1094 118.354Z" fill="#198F76"/>
<path d="M20.8977 189.781C32.4391 189.781 41.7953 180.28 41.7953 168.56C41.7953 156.841 32.4391 147.34 20.8977 147.34C9.3562 147.34 0 156.841 0 168.56C0 180.28 9.3562 189.781 20.8977 189.781Z" fill="white"/>
<path d="M69.2639 190C80.8053 190 90.1615 180.499 90.1615 168.779C90.1615 157.059 80.8053 147.559 69.2639 147.559C57.7224 147.559 48.3662 157.059 48.3662 168.779C48.3662 180.499 57.7224 190 69.2639 190Z" fill="white"/>
<path d="M159.102 140.668C170.644 140.668 180 131.167 180 119.447C180 107.727 170.644 98.2266 159.102 98.2266C147.561 98.2266 138.205 107.727 138.205 119.447C138.205 131.167 147.561 140.668 159.102 140.668Z" fill="#198F76"/>
<path d="M53.8599 112.994C55.2877 112.994 56.4452 111.818 56.4452 110.368C56.4452 108.919 55.2877 107.743 53.8599 107.743C52.4321 107.743 51.2747 108.919 51.2747 110.368C51.2747 111.818 52.4321 112.994 53.8599 112.994Z" fill="#C15191"/>
<path d="M54.183 135.745H48.4739V124.26H54.183C57.3069 124.26 59.8922 126.885 59.8922 130.057C59.7845 133.12 57.3069 135.745 54.183 135.745Z" fill="#198F76"/>
</g>
<defs>
<clipPath id="clip0_870_1302">
<rect width="180" height="190" fill="white"/>
</clipPath>
</defs>
</svg>
