<svg width="1132" height="183" viewBox="0 0 1132 183" fill="none" xmlns="http://www.w3.org/2000/svg">
<circle cx="724" cy="32" r="32" fill="#171717"/>
<circle cx="734" cy="12" r="10" fill="white"/>
<path d="M25.9512 65C20.2542 65 15.4718 63.8573 11.6038 61.5719C7.76586 59.2865 4.8724 56.1849 2.92344 52.2671C0.974481 48.3196 0 43.8676 0 38.911V1.33562H11.6938V39.0445C11.6938 44.0902 12.9681 47.8596 15.5167 50.3527C18.0654 52.8459 21.5435 54.0925 25.9512 54.0925C30.3588 54.0925 33.822 52.8459 36.3406 50.3527C38.8893 47.8596 40.1636 44.0902 40.1636 39.0445V1.33562H51.9023V38.911C51.9023 43.8676 50.9279 48.3196 48.9789 52.2671C47.0299 56.1849 44.1365 59.2865 40.2985 61.5719C36.4606 63.8573 31.6781 65 25.9512 65Z" fill="#171717"/>
<path d="M67.4296 63.6644V1.33562H78.7636L108.583 44.2534V1.33562H119.962V63.6644H108.628L78.8085 20.2123V63.6644H67.4296Z" fill="#171717"/>
<path d="M157.47 63.6644V1.33562H168.803L198.623 44.2534V1.33562H210.002V63.6644H198.668L168.848 20.2123V63.6644H157.47Z" fill="#171717"/>
<path d="M255.269 65C250.502 65 246.079 64.1838 242.001 62.5514C237.953 60.8893 234.43 58.589 231.432 55.6507C228.434 52.7123 226.11 49.2694 224.461 45.3219C222.811 41.3744 221.987 37.1005 221.987 32.5C221.987 27.8699 222.811 23.581 224.461 19.6336C226.11 15.6861 228.434 12.2431 231.432 9.30479C234.43 6.36644 237.953 4.08105 242.001 2.44863C246.079 0.816209 250.502 0 255.269 0C260.007 0 264.399 0.83105 268.447 2.49315C272.495 4.15525 276.018 6.47032 279.017 9.43836C282.015 12.4064 284.354 15.8642 286.033 19.8116C287.712 23.7295 288.551 27.9589 288.551 32.5C288.551 37.1005 287.712 41.3744 286.033 45.3219C284.354 49.2694 282.015 52.7123 279.017 55.6507C276.018 58.589 272.495 60.8893 268.447 62.5514C264.399 64.1838 260.007 65 255.269 65ZM255.269 54.0925C258.238 54.0925 260.996 53.5879 263.545 52.5788C266.123 51.54 268.357 50.0856 270.246 48.2158C272.165 46.3162 273.649 44.0457 274.699 41.4041C275.778 38.7329 276.318 35.7648 276.318 32.5C276.318 28.137 275.388 24.3379 273.529 21.1027C271.67 17.8676 269.152 15.3596 265.973 13.5788C262.795 11.7979 259.227 10.9075 255.269 10.9075C252.271 10.9075 249.497 11.4121 246.949 12.4212C244.4 13.4304 242.166 14.8847 240.247 16.7842C238.358 18.6838 236.874 20.9543 235.795 23.5959C234.745 26.2374 234.22 29.2055 234.22 32.5C234.22 36.863 235.135 40.6621 236.964 43.8973C238.823 47.1324 241.342 49.6404 244.52 51.4212C247.698 53.2021 251.281 54.0925 255.269 54.0925Z" fill="#171717"/>
<path d="M326.026 65C320.329 65 315.546 63.8573 311.678 61.5719C307.84 59.2865 304.947 56.1849 302.998 52.2671C301.049 48.3196 300.074 43.8676 300.074 38.911V1.33562H311.768V39.0445C311.768 44.0902 313.043 47.8596 315.591 50.3527C318.14 52.8459 321.618 54.0925 326.026 54.0925C330.433 54.0925 333.896 52.8459 336.415 50.3527C338.964 47.8596 340.238 44.0902 340.238 39.0445V1.33562H351.977V38.911C351.977 43.8676 351.002 48.3196 349.053 52.2671C347.104 56.1849 344.211 59.2865 340.373 61.5719C336.535 63.8573 331.753 65 326.026 65Z" fill="#171717"/>
<path d="M383.65 63.6644L359.768 1.33562H372.946L390.217 48.5274L406.948 1.33562H419.856L396.469 63.6644H383.65Z" fill="#171717"/>
<path d="M428.028 63.6644V1.33562H469.901V11.4863H439.722V26.5788H465.538V36.0616H439.722V53.4247H470.216V63.6644H428.028Z" fill="#171717"/>
<path d="M476.613 63.6644L500.765 1.33562H513.808L538.455 63.6644H525.277L519.925 49.5514H494.604L489.431 63.6644H476.613ZM497.482 39.7123H516.957L507.062 14.4247L497.482 39.7123Z" fill="#171717"/>
<path d="M571.813 65C566.116 65 561.333 63.8573 557.465 61.5719C553.627 59.2865 550.734 56.1849 548.785 52.2671C546.836 48.3196 545.861 43.8676 545.861 38.911V1.33562H557.555V39.0445C557.555 44.0902 558.83 47.8596 561.378 50.3527C563.927 52.8459 567.405 54.0925 571.813 54.0925C576.22 54.0925 579.683 52.8459 582.202 50.3527C584.751 47.8596 586.025 44.0902 586.025 39.0445V1.33562H597.764V38.911C597.764 43.8676 596.789 48.3196 594.84 52.2671C592.891 56.1849 589.998 59.2865 586.16 61.5719C582.322 63.8573 577.54 65 571.813 65Z" fill="#171717"/>
<path d="M634.901 63.6644V1.33562H658.513C663.041 1.33562 667.059 2.12214 670.567 3.6952C674.075 5.23858 676.818 7.47945 678.797 10.4178C680.806 13.3562 681.811 16.8881 681.811 21.0137C681.811 25.1986 680.881 28.7454 679.022 31.6541C677.193 34.5628 674.524 36.7888 671.016 38.3322C667.508 39.8459 663.251 40.6027 658.243 40.6027H646.594V63.6644H634.901ZM646.594 30.7637H658.198C661.946 30.7637 664.87 29.992 666.969 28.4486C669.067 26.9053 670.117 24.5011 670.117 21.2363C670.117 17.9715 669.037 15.5228 666.879 13.8904C664.75 12.2283 661.886 11.3973 658.288 11.3973H646.594V30.7637Z" fill="#171717"/>
<path d="M767.193 63.6644V1.33562H778.887V63.6644H767.193Z" fill="#171717"/>
<path d="M794.776 63.6644V1.33562H806.11L835.929 44.2534V1.33562H847.308V63.6644H835.974L806.155 20.2123V63.6644H794.776Z" fill="#171717"/>
<path d="M874.855 63.6644V11.9315H857.45V1.33562H904V11.9315H886.594V63.6644H874.855Z" fill="#171717"/>
<path d="M361 181.663V119.292H381.335C387.664 119.292 393.257 120.614 398.116 123.257C402.975 125.9 406.769 129.568 409.498 134.261C412.228 138.954 413.592 144.374 413.592 150.522C413.592 155.096 412.812 159.299 411.253 163.13C409.693 166.932 407.474 170.214 404.594 172.976C401.745 175.738 398.341 177.877 394.382 179.391C390.453 180.906 386.104 181.663 381.335 181.663H361ZM372.697 170.882H380.255C383.405 170.882 386.269 170.422 388.848 169.501C391.428 168.58 393.647 167.244 395.507 165.491C397.396 163.739 398.836 161.601 399.826 159.076C400.845 156.552 401.355 153.7 401.355 150.522C401.355 146.216 400.47 142.548 398.701 139.518C396.961 136.459 394.502 134.127 391.323 132.524C388.173 130.89 384.484 130.073 380.255 130.073H372.697V170.882Z" fill="#171717"/>
<path d="M425.584 181.663V119.292H467.469V129.45H437.281V144.552H463.105V154.042H437.281V171.417H467.784V181.663H425.584Z" fill="#171717"/>
<path d="M519.148 181.663L495.259 119.292H508.441L525.716 166.516L542.452 119.292H555.364L531.97 181.663H519.148Z" fill="#171717"/>
<path d="M589.093 183C583.394 183 578.61 181.857 574.741 179.57C570.902 177.283 568.008 174.179 566.058 170.258C564.109 166.308 563.134 161.853 563.134 156.893V119.292H574.831V157.027C574.831 162.076 576.106 165.848 578.655 168.343C581.205 170.838 584.684 172.085 589.093 172.085C593.502 172.085 596.966 170.838 599.485 168.343C602.035 165.848 603.309 162.076 603.309 157.027V119.292H615.052V156.893C615.052 161.853 614.077 166.308 612.127 170.258C610.178 174.179 607.283 177.283 603.444 179.57C599.605 181.857 594.821 183 589.093 183Z" fill="#171717"/>
<path d="M630.583 181.663V119.292H672.468V129.45H642.281V144.552H668.104V154.042H642.281V171.417H672.783V181.663H630.583Z" fill="#171717"/>
<path d="M729.006 183C724.507 183 720.113 182.361 715.824 181.084C711.565 179.777 707.966 177.921 705.027 175.515L710.696 166.739C712.135 168.046 713.86 169.174 715.869 170.125C717.879 171.075 720.008 171.818 722.258 172.352C724.537 172.857 726.802 173.11 729.051 173.11C732.8 173.11 735.845 172.427 738.184 171.06C740.523 169.664 741.693 167.66 741.693 165.046C741.693 162.997 740.883 161.289 739.264 159.923C737.644 158.527 734.66 157.22 730.311 156.002L724.192 154.265C718.044 152.542 713.59 150.24 710.831 147.359C708.101 144.448 706.737 140.884 706.737 136.667C706.737 133.905 707.306 131.38 708.446 129.093C709.586 126.806 711.191 124.831 713.26 123.168C715.36 121.505 717.834 120.228 720.683 119.337C723.533 118.446 726.637 118 729.996 118C734.405 118 738.499 118.639 742.278 119.916C746.057 121.163 749.146 122.871 751.546 125.039L745.742 133.548C744.483 132.39 742.998 131.38 741.288 130.519C739.579 129.658 737.734 129.004 735.755 128.559C733.775 128.083 731.781 127.846 729.771 127.846C727.402 127.846 725.332 128.172 723.563 128.826C721.793 129.479 720.413 130.415 719.424 131.633C718.434 132.85 717.939 134.335 717.939 136.088C717.939 137.365 718.269 138.479 718.929 139.429C719.618 140.379 720.788 141.256 722.438 142.058C724.087 142.83 726.367 143.647 729.276 144.508L735.665 146.379C741.693 148.131 746.087 150.389 748.846 153.151C751.606 155.883 752.985 159.447 752.985 163.843C752.985 167.615 752.026 170.942 750.106 173.822C748.187 176.703 745.427 178.961 741.828 180.594C738.259 182.198 733.985 183 729.006 183Z" fill="#171717"/>
<path d="M790.402 183C784.703 183 779.919 181.857 776.05 179.57C772.211 177.283 769.317 174.179 767.367 170.258C765.418 166.308 764.443 161.853 764.443 156.893V119.292H776.14V157.027C776.14 162.076 777.415 165.848 779.964 168.343C782.514 170.838 785.993 172.085 790.402 172.085C794.811 172.085 798.275 170.838 800.794 168.343C803.344 165.848 804.618 162.076 804.618 157.027V119.292H816.36V156.893C816.36 161.853 815.386 166.308 813.436 170.258C811.487 174.179 808.592 177.283 804.753 179.57C800.914 181.857 796.13 183 790.402 183Z" fill="#171717"/>
<path d="M831.892 181.663V119.292H856.276C860.745 119.292 864.629 120.049 867.928 121.564C871.228 123.049 873.777 125.188 875.577 127.979C877.376 130.771 878.276 134.098 878.276 137.959C878.276 141.048 877.631 143.765 876.341 146.112C875.052 148.458 873.267 150.403 870.988 151.948C868.738 153.492 866.129 154.576 863.16 155.2L881.47 181.663H867.434L851.148 157.249H843.589V181.663H831.892ZM843.589 147.76H854.567C858.316 147.76 861.24 146.988 863.34 145.443C865.439 143.869 866.489 141.582 866.489 138.583C866.489 135.464 865.529 133.088 863.61 131.454C861.69 129.821 858.871 129.004 855.152 129.004H843.589V147.76Z" fill="#171717"/>
<path d="M913.962 181.663V119.292H925.659V171.06H952.383V181.663H913.962Z" fill="#171717"/>
<path d="M951.929 143.929L950.804 119.292H961.377L960.252 143.929H951.929Z" fill="#171717"/>
<path d="M960.189 181.663L984.348 119.292H997.395L1022.05 181.663H1008.87L1003.51 167.541H978.184L973.01 181.663H960.189ZM981.064 157.695H1000.54L990.646 132.39L981.064 157.695Z" fill="#171717"/>
<path d="M1030.74 181.663V119.292H1055.12C1059.59 119.292 1063.48 120.049 1066.78 121.564C1070.08 123.049 1072.63 125.188 1074.43 127.979C1076.22 130.771 1077.12 134.098 1077.12 137.959C1077.12 141.048 1076.48 143.765 1075.19 146.112C1073.9 148.458 1072.12 150.403 1069.84 151.948C1067.59 153.492 1064.98 154.576 1062.01 155.2L1080.32 181.663H1066.28L1050 157.249H1042.44V181.663H1030.74ZM1042.44 147.76H1053.42C1057.16 147.76 1060.09 146.988 1062.19 145.443C1064.29 143.869 1065.34 141.582 1065.34 138.583C1065.34 135.464 1064.38 133.088 1062.46 131.454C1060.54 129.821 1057.72 129.004 1054 129.004H1042.44V147.76Z" fill="#171717"/>
<path d="M1102.85 181.663V129.895H1085.44V119.292H1132V129.895H1114.59V181.663H1102.85Z" fill="#171717"/>
</svg>
