<svg width="1440" height="527" viewBox="0 0 1440 527" fill="none" xmlns="http://www.w3.org/2000/svg">
<rect width="1440" height="527" fill="white"/>
<path fill-rule="evenodd" clip-rule="evenodd" d="M817.001 397C803.193 397 792.001 408.193 792.001 422C792.001 435.807 803.193 447 817.001 447C830.808 447 842.001 435.807 842.001 422C842.001 408.193 830.808 397 817.001 397Z" fill="#198F76"/>
<path fill-rule="evenodd" clip-rule="evenodd" d="M651 314.942C650.969 301.162 639.788 290 626 290C612.193 290 601 301.193 601 315C601 328.807 612.193 340 626 340C639.788 340 650.969 328.838 651 315.058L651 314.942Z" fill="#198F76"/>
<path fill-rule="evenodd" clip-rule="evenodd" d="M1196 185C1182.19 185 1171 196.193 1171 210C1171 223.807 1182.19 235 1196 235C1209.81 235 1221 223.807 1221 210C1221 196.193 1209.81 185 1196 185Z" fill="#C15191"/>
<path fill-rule="evenodd" clip-rule="evenodd" d="M348 184C334.193 184 323 195.193 323 209C323 222.807 334.193 234 348 234C361.807 234 373 222.807 373 209C373 195.193 361.807 184 348 184Z" fill="#799FCC"/>
<path fill-rule="evenodd" clip-rule="evenodd" d="M624.275 80C624.855 80 625.431 80.0228 626.001 80.0677L626.001 129.932C625.431 129.977 624.855 130 624.275 130C611.42 130 601 118.807 601 105C601 91.1929 611.42 80 624.275 80Z" fill="#198F76"/>
<path fill-rule="evenodd" clip-rule="evenodd" d="M421.001 80.0677C420.431 80.0228 419.855 80 419.275 80C406.42 80 396 91.1929 396 105C396 118.807 406.42 130 419.275 130C419.855 130 420.431 129.977 421.001 129.932L421.001 80.0677Z" fill="#C15191"/>
<path d="M227 80C223.717 80 220.466 80.6466 217.433 81.903C214.4 83.1594 211.644 85.0009 209.322 87.3223C207.001 89.6438 205.159 92.3998 203.903 95.4329C202.647 98.4661 202 101.717 202 105C202 108.283 202.647 111.534 203.903 114.567C205.159 117.6 207.001 120.356 209.322 122.678C211.644 124.999 214.4 126.841 217.433 128.097C220.466 129.353 223.717 130 227 130L227 105L227 80Z" fill="#799FCC"/>
<path d="M146 130.05V81.05H155.03V115.385L177.99 81.05H186.88V130.05H177.85V95.435L154.82 130.05H146Z" fill="#171717"/>
<path d="M278.404 130.05L258.454 104.36L276.269 81.05H287.539L269.549 104.325L290.129 130.05H278.404ZM248.129 130.05V81.05H257.229V100.09H266.364V108.42H257.229V130.05H248.129Z" fill="#171717"/>
<path d="M299.021 130.925L295.591 122.595C298.438 121.965 300.969 121.02 303.186 119.76C305.426 118.5 307.433 116.808 309.206 114.685C311.003 112.562 312.671 109.913 314.211 106.74L326.636 81.05H337.171L322.506 110.065C320.826 113.402 319.123 116.283 317.396 118.71C315.669 121.137 313.861 123.178 311.971 124.835C310.104 126.468 308.098 127.775 305.951 128.755C303.828 129.735 301.518 130.458 299.021 130.925ZM312.776 115.245L294.051 81.05H305.111L318.901 107.37L312.776 115.245Z" fill="#171717"/>
<path d="M363.806 131.1C358.719 131.1 354.263 130.05 350.436 127.95C346.609 125.85 343.634 122.898 341.511 119.095C339.388 115.268 338.326 110.777 338.326 105.62C338.326 101.863 338.944 98.4333 340.181 95.33C341.441 92.2033 343.214 89.4967 345.501 87.21C347.811 84.9 350.518 83.1267 353.621 81.89C356.748 80.63 360.178 80 363.911 80C367.761 80 371.051 80.49 373.781 81.47C376.511 82.4267 378.938 83.7917 381.061 85.565L376.406 93.02C374.913 91.5967 373.163 90.5467 371.156 89.87C369.173 89.17 366.968 88.82 364.541 88.82C361.951 88.82 359.629 89.205 357.576 89.975C355.523 90.745 353.773 91.865 352.326 93.335C350.879 94.7817 349.771 96.5317 349.001 98.585C348.231 100.638 347.846 102.948 347.846 105.515C347.846 109.038 348.534 112.048 349.911 114.545C351.288 117.018 353.248 118.92 355.791 120.25C358.334 121.58 361.356 122.245 364.856 122.245C367.213 122.245 369.511 121.883 371.751 121.16C374.014 120.437 376.149 119.282 378.156 117.695L382.356 125.36C380.023 127.18 377.316 128.592 374.236 129.595C371.179 130.598 367.703 131.1 363.806 131.1Z" fill="#171717"/>
<path d="M447.165 130.05V89.38H433.62V81.05H469.845V89.38H456.3V130.05H447.165Z" fill="#171717"/>
<path d="M477.748 130.05V81.05H495.283C500.066 81.05 503.916 82.1 506.833 84.2C509.773 86.2767 511.243 89.3567 511.243 93.44C511.243 94.9567 510.893 96.3917 510.193 97.745C509.493 99.0983 508.583 100.288 507.463 101.315C506.343 102.318 505.153 103.088 503.893 103.625C506.553 104.465 508.746 105.97 510.473 108.14C512.2 110.31 513.063 112.958 513.063 116.085C513.063 118.838 512.363 121.265 510.963 123.365C509.586 125.465 507.615 127.11 505.048 128.3C502.481 129.467 499.448 130.05 495.948 130.05H477.748ZM486.848 123.085H494.513C497.57 123.085 499.856 122.478 501.373 121.265C502.89 120.028 503.648 118.185 503.648 115.735C503.648 113.332 502.89 111.488 501.373 110.205C499.88 108.922 497.605 108.28 494.548 108.28H486.848V123.085ZM486.848 101.7H493.953C495.656 101.7 497.138 101.42 498.398 100.86C499.658 100.3 500.638 99.495 501.338 98.445C502.038 97.3717 502.388 96.1 502.388 94.63C502.388 92.4833 501.641 90.85 500.148 89.73C498.678 88.5867 496.566 88.015 493.813 88.015H486.848V101.7Z" fill="#171717"/>
<path d="M545.515 131.1C541.805 131.1 538.363 130.458 535.19 129.175C532.04 127.868 529.298 126.06 526.965 123.75C524.632 121.44 522.823 118.733 521.54 115.63C520.257 112.527 519.615 109.167 519.615 105.55C519.615 101.91 520.257 98.5383 521.54 95.435C522.823 92.3317 524.632 89.625 526.965 87.315C529.298 85.005 532.04 83.2083 535.19 81.925C538.363 80.6417 541.805 80 545.515 80C549.202 80 552.62 80.6533 555.77 81.96C558.92 83.2667 561.662 85.0867 563.995 87.42C566.328 89.7533 568.148 92.4717 569.455 95.575C570.762 98.655 571.415 101.98 571.415 105.55C571.415 109.167 570.762 112.527 569.455 115.63C568.148 118.733 566.328 121.44 563.995 123.75C561.662 126.06 558.92 127.868 555.77 129.175C552.62 130.458 549.202 131.1 545.515 131.1ZM545.515 122.525C547.825 122.525 549.972 122.128 551.955 121.335C553.962 120.518 555.7 119.375 557.17 117.905C558.664 116.412 559.818 114.627 560.635 112.55C561.475 110.45 561.895 108.117 561.895 105.55C561.895 102.12 561.172 99.1333 559.725 96.59C558.279 94.0467 556.318 92.075 553.845 90.675C551.372 89.275 548.595 88.575 545.515 88.575C543.182 88.575 541.023 88.9717 539.04 89.765C537.057 90.5583 535.319 91.7017 533.825 93.195C532.355 94.6883 531.2 96.4733 530.36 98.55C529.543 100.627 529.135 102.96 529.135 105.55C529.135 108.98 529.847 111.967 531.27 114.51C532.717 117.053 534.677 119.025 537.15 120.425C539.623 121.825 542.412 122.525 545.515 122.525Z" fill="#171717"/>
<path d="M647.791 130.925L644.361 122.595C647.207 121.965 649.739 121.02 651.956 119.76C654.196 118.5 656.202 116.808 657.976 114.685C659.772 112.562 661.441 109.913 662.981 106.74L675.406 81.05H685.941L671.276 110.065C669.596 113.402 667.892 116.283 666.166 118.71C664.439 121.137 662.631 123.178 660.741 124.835C658.874 126.468 656.867 127.775 654.721 128.755C652.597 129.735 650.287 130.458 647.791 130.925ZM661.546 115.245L642.821 81.05H653.881L667.671 107.37L661.546 115.245Z" fill="#171717"/>
<path d="M691.918 130.05V81.05H723.558V89.03H701.018V101H709.453C714.843 101 719.148 102.225 722.368 104.675C725.611 107.125 727.233 110.742 727.233 115.525C727.233 118.605 726.521 121.23 725.098 123.4C723.675 125.547 721.633 127.192 718.973 128.335C716.336 129.478 713.151 130.05 709.418 130.05H691.918ZM701.018 123.085H708.718C711.635 123.085 713.875 122.443 715.438 121.16C717.025 119.877 717.818 118.022 717.818 115.595C717.818 113.238 717.048 111.383 715.508 110.03C713.968 108.653 711.833 107.965 709.103 107.965H701.018V123.085Z" fill="#171717"/>
<path d="M745.895 89.38H732.35V81.05H754.995L745.895 89.38ZM745.895 130.05V81.05H754.995V99.18H764.27C767.793 99.18 770.908 99.7983 773.615 101.035C776.345 102.248 778.492 104.01 780.055 106.32C781.618 108.63 782.4 111.407 782.4 114.65C782.4 117.123 781.992 119.317 781.175 121.23C780.358 123.143 779.168 124.753 777.605 126.06C776.042 127.367 774.117 128.358 771.83 129.035C769.567 129.712 766.977 130.05 764.06 130.05H745.895ZM754.995 122.315H764.025C766.942 122.315 769.217 121.708 770.85 120.495C772.483 119.282 773.3 117.392 773.3 114.825C773.3 112.258 772.46 110.333 770.78 109.05C769.123 107.743 766.895 107.09 764.095 107.09H754.995V122.315Z" fill="#171717"/>
<path d="M790.766 130.05V81.05H823.351V89.03H799.866V100.895H819.956V108.35H799.866V122H823.596V130.05H790.766Z" fill="#171717"/>
<path d="M864.449 130.05L844.499 104.36L862.314 81.05H873.584L855.594 104.325L876.174 130.05H864.449ZM834.174 130.05V81.05H843.274V100.09H852.409V108.42H843.274V130.05H834.174Z" fill="#171717"/>
<path d="M891.706 130.05V89.38H878.161V81.05H914.386V89.38H900.841V130.05H891.706Z" fill="#171717"/>
<path d="M922.289 130.05V81.05H931.319V115.385L954.279 81.05H963.169V130.05H954.139V95.435L931.109 130.05H922.289Z" fill="#171717"/>
<path d="M975.541 130.05V81.05H993.076C997.859 81.05 1001.71 82.1 1004.63 84.2C1007.57 86.2767 1009.04 89.3567 1009.04 93.44C1009.04 94.9567 1008.69 96.3917 1007.99 97.745C1007.29 99.0983 1006.38 100.288 1005.26 101.315C1004.14 102.318 1002.95 103.088 1001.69 103.625C1004.35 104.465 1006.54 105.97 1008.27 108.14C1009.99 110.31 1010.86 112.958 1010.86 116.085C1010.86 118.838 1010.16 121.265 1008.76 123.365C1007.38 125.465 1005.41 127.11 1002.84 128.3C1000.27 129.467 997.241 130.05 993.741 130.05H975.541ZM984.641 123.085H992.306C995.363 123.085 997.649 122.478 999.166 121.265C1000.68 120.028 1001.44 118.185 1001.44 115.735C1001.44 113.332 1000.68 111.488 999.166 110.205C997.673 108.922 995.398 108.28 992.341 108.28H984.641V123.085ZM984.641 101.7H991.746C993.449 101.7 994.931 101.42 996.191 100.86C997.451 100.3 998.431 99.495 999.131 98.445C999.831 97.3717 1000.18 96.1 1000.18 94.63C1000.18 92.4833 999.434 90.85 997.941 89.73C996.471 88.5867 994.359 88.015 991.606 88.015H984.641V101.7Z" fill="#171717"/>
<path d="M1020.45 130.05V81.05H1029.55V100.09H1051.81V81.05H1060.91V130.05H1051.81V108.42H1029.55V130.05H1020.45Z" fill="#171717"/>
<path d="M1096.15 131.1C1092.44 131.1 1089 130.458 1085.82 129.175C1082.67 127.868 1079.93 126.06 1077.6 123.75C1075.27 121.44 1073.46 118.733 1072.17 115.63C1070.89 112.527 1070.25 109.167 1070.25 105.55C1070.25 101.91 1070.89 98.5383 1072.17 95.435C1073.46 92.3317 1075.27 89.625 1077.6 87.315C1079.93 85.005 1082.67 83.2083 1085.82 81.925C1089 80.6417 1092.44 80 1096.15 80C1099.84 80 1103.25 80.6533 1106.4 81.96C1109.55 83.2667 1112.3 85.0867 1114.63 87.42C1116.96 89.7533 1118.78 92.4717 1120.09 95.575C1121.4 98.655 1122.05 101.98 1122.05 105.55C1122.05 109.167 1121.4 112.527 1120.09 115.63C1118.78 118.733 1116.96 121.44 1114.63 123.75C1112.3 126.06 1109.55 127.868 1106.4 129.175C1103.25 130.458 1099.84 131.1 1096.15 131.1ZM1096.15 122.525C1098.46 122.525 1100.61 122.128 1102.59 121.335C1104.6 120.518 1106.33 119.375 1107.8 117.905C1109.3 116.412 1110.45 114.627 1111.27 112.55C1112.11 110.45 1112.53 108.117 1112.53 105.55C1112.53 102.12 1111.81 99.1333 1110.36 96.59C1108.91 94.0467 1106.95 92.075 1104.48 90.675C1102.01 89.275 1099.23 88.575 1096.15 88.575C1093.82 88.575 1091.66 88.9717 1089.67 89.765C1087.69 90.5583 1085.95 91.7017 1084.46 93.195C1082.99 94.6883 1081.83 96.4733 1080.99 98.55C1080.18 100.627 1079.77 102.96 1079.77 105.55C1079.77 108.98 1080.48 111.967 1081.9 114.51C1083.35 117.053 1085.31 119.025 1087.78 120.425C1090.26 121.825 1093.05 122.525 1096.15 122.525Z" fill="#171717"/>
<path d="M1128.84 141.285L1125.9 137.295C1127.75 136.455 1129.38 135.417 1130.8 134.18C1132.23 132.943 1133.22 131.73 1133.78 130.54C1132.61 130.61 1131.55 130.435 1130.59 130.015C1129.64 129.595 1128.87 128.977 1128.28 128.16C1127.72 127.343 1127.44 126.387 1127.44 125.29C1127.44 123.61 1127.98 122.257 1129.05 121.23C1130.15 120.18 1131.55 119.655 1133.25 119.655C1135.17 119.655 1136.72 120.297 1137.91 121.58C1139.1 122.84 1139.69 124.567 1139.69 126.76C1139.69 128.463 1139.29 130.155 1138.47 131.835C1137.68 133.538 1136.47 135.183 1134.86 136.77C1133.25 138.357 1131.25 139.862 1128.84 141.285Z" fill="#171717"/>
<path d="M1175.12 130.05V89.38H1161.58V81.05H1197.8V89.38H1184.26V130.05H1175.12Z" fill="#171717"/>
<path d="M1196.96 130.05L1215.76 81.05H1225.91L1245.09 130.05H1234.83L1230.67 118.955H1210.96L1206.94 130.05H1196.96ZM1213.2 111.22H1228.36L1220.66 91.34L1213.2 111.22Z" fill="#171717"/>
<path d="M1282.12 130.05L1262.17 104.36L1279.99 81.05H1291.26L1273.27 104.325L1293.85 130.05H1282.12ZM1251.85 130.05V81.05H1260.95V100.09H1270.08V108.42H1260.95V130.05H1251.85Z" fill="#171717"/>
<path d="M217.675 235.05V186.05H226.705V220.385L249.665 186.05H258.555V235.05H249.525V200.435L226.495 235.05H217.675Z" fill="#171717"/>
<path d="M296.808 235.05V194.38H283.263V186.05H319.488V194.38H305.943V235.05H296.808Z" fill="#171717"/>
<path d="M410.715 235.05V215.52C408.685 216.057 406.701 216.488 404.765 216.815C402.851 217.142 400.798 217.305 398.605 217.305C394.825 217.305 391.581 216.687 388.875 215.45C386.191 214.19 384.126 212.23 382.68 209.57C381.233 206.91 380.51 203.445 380.51 199.175V186.05H389.61V197.88C389.61 201.987 390.496 204.88 392.27 206.56C394.066 208.24 396.668 209.08 400.075 209.08C402.221 209.08 404.123 208.963 405.78 208.73C407.436 208.497 409.081 208.193 410.715 207.82V186.05H419.815V235.05H410.715Z" fill="#171717"/>
<path d="M462.462 235.05L442.512 209.36L460.327 186.05H471.597L453.607 209.325L474.187 235.05H462.462ZM432.187 235.05V186.05H441.287V205.09H450.422V213.42H441.287V235.05H432.187Z" fill="#171717"/>
<path d="M481.679 235.05V186.05H490.709V220.385L513.669 186.05H522.559V235.05H513.529V200.435L490.499 235.05H481.679Z" fill="#171717"/>
<path d="M565.782 236.1C562.002 236.1 558.56 235.622 555.457 234.665C552.354 233.708 549.612 232.332 547.232 230.535L551.397 223.325C553.077 224.795 555.095 225.962 557.452 226.825C559.832 227.665 562.317 228.085 564.907 228.085C567.147 228.085 569.084 227.77 570.717 227.14C572.35 226.51 573.61 225.635 574.497 224.515C575.407 223.395 575.862 222.088 575.862 220.595C575.862 218.262 575.069 216.5 573.482 215.31C571.895 214.097 569.434 213.49 566.097 213.49H556.402V206.315H565.397C567.264 206.315 568.862 206.047 570.192 205.51C571.545 204.973 572.584 204.215 573.307 203.235C574.03 202.232 574.392 201.03 574.392 199.63C574.392 198.253 574.03 197.098 573.307 196.165C572.607 195.232 571.545 194.532 570.122 194.065C568.722 193.575 567.007 193.33 564.977 193.33C562.714 193.33 560.52 193.703 558.397 194.45C556.297 195.197 554.5 196.235 553.007 197.565L548.772 190.88C550.895 188.99 553.462 187.543 556.472 186.54C559.482 185.513 562.702 185 566.132 185C569.725 185 572.817 185.525 575.407 186.575C577.997 187.602 579.98 189.083 581.357 191.02C582.757 192.957 583.457 195.278 583.457 197.985C583.457 199.478 583.119 200.937 582.442 202.36C581.765 203.76 580.867 205.02 579.747 206.14C578.65 207.237 577.449 208.077 576.142 208.66C578.872 209.547 581.077 211.028 582.757 213.105C584.46 215.182 585.3 217.795 585.277 220.945C585.277 223.792 584.46 226.358 582.827 228.645C581.217 230.932 578.942 232.752 576.002 234.105C573.085 235.435 569.679 236.1 565.782 236.1Z" fill="#171717"/>
<path d="M594.95 235.05V186.05H613.325C616.849 186.05 619.975 186.668 622.705 187.905C625.435 189.118 627.57 190.88 629.11 193.19C630.674 195.5 631.455 198.277 631.455 201.52C631.455 204.81 630.732 207.598 629.285 209.885C627.862 212.172 625.785 213.922 623.055 215.135C620.325 216.325 617.012 216.92 613.115 216.92H604.05V235.05H594.95ZM604.05 209.185H613.08C615.997 209.185 618.272 208.578 619.905 207.365C621.539 206.152 622.355 204.262 622.355 201.695C622.355 199.128 621.515 197.203 619.835 195.92C618.179 194.613 615.95 193.96 613.15 193.96H604.05V209.185Z" fill="#171717"/>
<path d="M639.862 235.05V186.05H672.447V194.03H648.962V205.895H669.052V213.35H648.962V227H672.692V235.05H639.862Z" fill="#171717"/>
<path d="M683.271 235.05V186.05H692.37V205.09H714.63V186.05H723.731V235.05H714.63V213.42H692.37V235.05H683.271Z" fill="#171717"/>
<path d="M736.112 235.05V186.05H745.142V220.385L768.102 186.05H776.992V235.05H767.962V200.435L744.932 235.05H736.112Z" fill="#171717"/>
<path d="M785.479 235.05L799.829 214.61C796.096 213.77 793.179 212.183 791.079 209.85C789.003 207.517 787.964 204.53 787.964 200.89C787.964 197.787 788.688 195.127 790.134 192.91C791.604 190.693 793.669 189.002 796.329 187.835C799.013 186.645 802.163 186.05 805.779 186.05H824.049V235.05H814.949V215.87H809.034L796.014 235.05H785.479ZM805.989 208.415H814.949V193.68H806.374C803.481 193.68 801.218 194.287 799.584 195.5C797.951 196.69 797.134 198.487 797.134 200.89C797.134 203.317 797.881 205.183 799.374 206.49C800.868 207.773 803.073 208.415 805.989 208.415Z" fill="#171717"/>
<path d="M883.487 235.05L863.537 209.36L881.352 186.05H892.622L874.632 209.325L895.212 235.05H883.487ZM853.212 235.05V186.05H862.312V205.09H871.447V213.42H862.312V235.05H853.212Z" fill="#171717"/>
<path d="M897.446 235.05L916.241 186.05H926.391L945.571 235.05H935.316L931.151 223.955H911.446L907.421 235.05H897.446ZM913.686 216.22H928.841L921.141 196.34L913.686 216.22Z" fill="#171717"/>
<path d="M1005.24 235.05L987.29 209.255L1003.32 186.05H1013.71L997.51 209.22L1016.02 235.05H1005.24ZM947.635 235.05L966.045 209.71L950.085 186.05H960.795L976.265 209.325L958.03 235.05H947.635ZM977.28 235.05V213.035H969.055V205.335H977.28V186.05H986.38V205.335H994.605V213.035H986.38V235.05H977.28Z" fill="#171717"/>
<path d="M1055.21 235.05V194.38H1037.43V200.54C1037.43 206.35 1037.14 211.297 1036.55 215.38C1035.99 219.44 1035.1 222.788 1033.86 225.425C1032.65 228.038 1031.02 230.092 1028.99 231.585C1026.99 233.078 1024.54 234.175 1021.64 234.875L1018.46 227.385C1020.54 226.895 1022.24 226.16 1023.57 225.18C1024.92 224.2 1025.97 222.742 1026.72 220.805C1027.47 218.868 1027.99 216.267 1028.29 213C1028.6 209.733 1028.75 205.58 1028.75 200.54V186.05H1064.31V235.05H1055.21ZM1018.46 247.475V227.385L1024.23 227.665L1027.38 226.72H1072.15V247.475H1063.54V235.05H1027.07V247.475H1018.46Z" fill="#171717"/>
<path d="M1102.2 236.1C1098.49 236.1 1095.05 235.458 1091.87 234.175C1088.72 232.868 1085.98 231.06 1083.65 228.75C1081.32 226.44 1079.51 223.733 1078.22 220.63C1076.94 217.527 1076.3 214.167 1076.3 210.55C1076.3 206.91 1076.94 203.538 1078.22 200.435C1079.51 197.332 1081.32 194.625 1083.65 192.315C1085.98 190.005 1088.72 188.208 1091.87 186.925C1095.05 185.642 1098.49 185 1102.2 185C1105.89 185 1109.3 185.653 1112.45 186.96C1115.6 188.267 1118.35 190.087 1120.68 192.42C1123.01 194.753 1124.83 197.472 1126.14 200.575C1127.45 203.655 1128.1 206.98 1128.1 210.55C1128.1 214.167 1127.45 217.527 1126.14 220.63C1124.83 223.733 1123.01 226.44 1120.68 228.75C1118.35 231.06 1115.6 232.868 1112.45 234.175C1109.3 235.458 1105.89 236.1 1102.2 236.1ZM1102.2 227.525C1104.51 227.525 1106.66 227.128 1108.64 226.335C1110.65 225.518 1112.38 224.375 1113.85 222.905C1115.35 221.412 1116.5 219.627 1117.32 217.55C1118.16 215.45 1118.58 213.117 1118.58 210.55C1118.58 207.12 1117.86 204.133 1116.41 201.59C1114.96 199.047 1113 197.075 1110.53 195.675C1108.06 194.275 1105.28 193.575 1102.2 193.575C1099.87 193.575 1097.71 193.972 1095.72 194.765C1093.74 195.558 1092 196.702 1090.51 198.195C1089.04 199.688 1087.88 201.473 1087.04 203.55C1086.23 205.627 1085.82 207.96 1085.82 210.55C1085.82 213.98 1086.53 216.967 1087.95 219.51C1089.4 222.053 1091.36 224.025 1093.83 225.425C1096.31 226.825 1099.1 227.525 1102.2 227.525Z" fill="#171717"/>
<path d="M1137.38 235.05V186.05H1165.87V194.38H1146.48V235.05H1137.38Z" fill="#171717"/>
<path d="M209.937 341.1C206.157 341.1 202.716 340.622 199.612 339.665C196.509 338.708 193.767 337.332 191.387 335.535L195.552 328.325C197.232 329.795 199.251 330.962 201.607 331.825C203.987 332.665 206.472 333.085 209.062 333.085C211.302 333.085 213.239 332.77 214.872 332.14C216.506 331.51 217.766 330.635 218.652 329.515C219.562 328.395 220.017 327.088 220.017 325.595C220.017 323.262 219.224 321.5 217.637 320.31C216.051 319.097 213.589 318.49 210.252 318.49H200.557V311.315H209.552C211.419 311.315 213.017 311.047 214.347 310.51C215.701 309.973 216.739 309.215 217.462 308.235C218.186 307.232 218.547 306.03 218.547 304.63C218.547 303.253 218.186 302.098 217.462 301.165C216.762 300.232 215.701 299.532 214.277 299.065C212.877 298.575 211.162 298.33 209.132 298.33C206.869 298.33 204.676 298.703 202.552 299.45C200.452 300.197 198.656 301.235 197.162 302.565L192.927 295.88C195.051 293.99 197.617 292.543 200.627 291.54C203.637 290.513 206.857 290 210.287 290C213.881 290 216.972 290.525 219.562 291.575C222.152 292.602 224.136 294.083 225.512 296.02C226.912 297.957 227.612 300.278 227.612 302.985C227.612 304.478 227.274 305.937 226.597 307.36C225.921 308.76 225.022 310.02 223.902 311.14C222.806 312.237 221.604 313.077 220.297 313.66C223.027 314.547 225.232 316.028 226.912 318.105C228.616 320.182 229.456 322.795 229.432 325.945C229.432 328.792 228.616 331.358 226.982 333.645C225.372 335.932 223.097 337.752 220.157 339.105C217.241 340.435 213.834 341.1 209.937 341.1Z" fill="#171717"/>
<path d="M239.105 340.05V291.05H257.48C261.004 291.05 264.13 291.668 266.86 292.905C269.59 294.118 271.725 295.88 273.265 298.19C274.829 300.5 275.61 303.277 275.61 306.52C275.61 309.81 274.887 312.598 273.44 314.885C272.017 317.172 269.94 318.922 267.21 320.135C264.48 321.325 261.167 321.92 257.27 321.92H248.205V340.05H239.105ZM248.205 314.185H257.235C260.152 314.185 262.427 313.578 264.06 312.365C265.694 311.152 266.51 309.262 266.51 306.695C266.51 304.128 265.67 302.203 263.99 300.92C262.334 299.613 260.105 298.96 257.305 298.96H248.205V314.185Z" fill="#171717"/>
<path d="M284.018 340.05V291.05H293.048V325.385L316.008 291.05H324.898V340.05H315.868V305.435L292.838 340.05H284.018Z" fill="#171717"/>
<path d="M346.335 340.05V299.38H332.79V291.05H369.015V299.38H355.47V340.05H346.335Z" fill="#171717"/>
<path d="M376.918 340.05V291.05H409.503V299.03H386.018V310.895H406.108V318.35H386.018V332H409.748V340.05H376.918Z" fill="#171717"/>
<path d="M418.961 340.925L415.706 332.56C417.293 332.07 418.634 331.498 419.731 330.845C420.851 330.168 421.784 329.258 422.531 328.115C423.278 326.972 423.861 325.467 424.281 323.6C424.724 321.71 425.028 319.33 425.191 316.46C425.378 313.567 425.471 310.043 425.471 305.89V291.05H460.611V340.05H451.511V299.38H434.151V305.54C434.151 310.58 433.988 314.943 433.661 318.63C433.358 322.317 432.856 325.443 432.156 328.01C431.456 330.577 430.511 332.7 429.321 334.38C428.155 336.06 426.72 337.413 425.016 338.44C423.313 339.467 421.295 340.295 418.961 340.925Z" fill="#171717"/>
<path d="M469.078 340.05L483.428 319.61C479.695 318.77 476.778 317.183 474.678 314.85C472.601 312.517 471.563 309.53 471.563 305.89C471.563 302.787 472.286 300.127 473.733 297.91C475.203 295.693 477.268 294.002 479.928 292.835C482.611 291.645 485.761 291.05 489.378 291.05H507.648V340.05H498.548V320.87H492.633L479.613 340.05H469.078ZM489.588 313.415H498.548V298.68H489.973C487.08 298.68 484.816 299.287 483.183 300.5C481.55 301.69 480.733 303.487 480.733 305.89C480.733 308.317 481.48 310.183 482.973 311.49C484.466 312.773 486.671 313.415 489.588 313.415Z" fill="#171717"/>
<path d="M536.811 340.05V291.05H545.596L565.126 323.04L561.556 323.075L580.281 291.05H588.961V340.05H580.106L580.246 302.95L581.926 303.545L566.106 329.935H559.701L543.496 303.545L545.001 302.95L545.141 340.05H536.811Z" fill="#171717"/>
<path d="M659.379 340.05V291.05H687.869V299.38H668.479V340.05H659.379Z" fill="#171717"/>
<path d="M697.83 340.925L694.4 332.595C697.246 331.965 699.778 331.02 701.995 329.76C704.235 328.5 706.241 326.808 708.015 324.685C709.811 322.562 711.48 319.913 713.02 316.74L725.445 291.05H735.98L721.315 320.065C719.635 323.402 717.931 326.283 716.205 328.71C714.478 331.137 712.67 333.178 710.78 334.835C708.913 336.468 706.906 337.775 704.76 338.755C702.636 339.735 700.326 340.458 697.83 340.925ZM711.585 325.245L692.86 291.05H703.92L717.71 317.37L711.585 325.245Z" fill="#171717"/>
<path d="M751.706 340.05V299.38H738.161V291.05H774.386V299.38H760.841V340.05H751.706Z" fill="#171717"/>
<path d="M799.105 340.05V291.05H839.565V340.05H830.465V299.38H808.205V340.05H799.105Z" fill="#171717"/>
<path d="M851.947 340.05V291.05H870.322C873.846 291.05 876.972 291.668 879.702 292.905C882.432 294.118 884.567 295.88 886.107 298.19C887.671 300.5 888.452 303.277 888.452 306.52C888.452 309.81 887.729 312.598 886.282 314.885C884.859 317.172 882.782 318.922 880.052 320.135C877.322 321.325 874.009 321.92 870.112 321.92H861.047V340.05H851.947ZM861.047 314.185H870.077C872.994 314.185 875.269 313.578 876.902 312.365C878.536 311.152 879.352 309.262 879.352 306.695C879.352 304.128 878.512 302.203 876.832 300.92C875.176 299.613 872.947 298.96 870.147 298.96H861.047V314.185Z" fill="#171717"/>
<path d="M896.859 340.05V291.05H905.889V325.385L928.849 291.05H937.739V340.05H928.709V305.435L905.679 340.05H896.859Z" fill="#171717"/>
<path d="M950.111 340.05V291.05H959.211V310.09H981.471V291.05H990.571V340.05H981.471V318.42H959.211V340.05H950.111Z" fill="#171717"/>
<path d="M1002.95 340.05V291.05H1011.98V325.385L1034.94 291.05H1043.83V340.05H1034.8V305.435L1011.77 340.05H1002.95Z" fill="#171717"/>
<path d="M1056.21 340.05V291.05H1064.99L1084.52 323.04L1080.95 323.075L1099.68 291.05H1108.36V340.05H1099.5L1099.64 302.95L1101.32 303.545L1085.5 329.935H1079.1L1062.89 303.545L1064.4 302.95L1064.54 340.05H1056.21Z" fill="#171717"/>
<path d="M1115.14 340.05L1133.93 291.05H1144.08L1163.26 340.05H1153.01L1148.84 328.955H1129.14L1125.11 340.05H1115.14ZM1131.38 321.22H1146.53L1138.83 301.34L1131.38 321.22Z" fill="#171717"/>
<path d="M1175.94 340.05V299.38H1162.4V291.05H1198.62V299.38H1185.08V340.05H1175.94Z" fill="#171717"/>
<path d="M1206.53 340.05V291.05H1215.63V309.18H1224.9C1228.43 309.18 1231.54 309.798 1234.25 311.035C1236.98 312.248 1239.12 314.01 1240.69 316.32C1242.25 318.63 1243.03 321.407 1243.03 324.65C1243.03 327.123 1242.62 329.317 1241.81 331.23C1240.99 333.143 1239.8 334.753 1238.24 336.06C1236.67 337.367 1234.75 338.358 1232.46 339.035C1230.2 339.712 1227.61 340.05 1224.69 340.05H1206.53ZM1215.63 332.315H1224.66C1227.57 332.315 1229.85 331.708 1231.48 330.495C1233.12 329.282 1233.93 327.392 1233.93 324.825C1233.93 322.258 1233.09 320.333 1231.41 319.05C1229.76 317.743 1227.53 317.09 1224.73 317.09H1215.63V332.315Z" fill="#171717"/>
<path d="M421.078 445.05V396.05H439.453C442.976 396.05 446.103 396.668 448.833 397.905C451.563 399.118 453.698 400.88 455.238 403.19C456.801 405.5 457.583 408.277 457.583 411.52C457.583 414.81 456.86 417.598 455.413 419.885C453.99 422.172 451.913 423.922 449.183 425.135C446.453 426.325 443.14 426.92 439.243 426.92H430.178V445.05H421.078ZM430.178 419.185H439.208C442.125 419.185 444.4 418.578 446.033 417.365C447.666 416.152 448.483 414.262 448.483 411.695C448.483 409.128 447.643 407.203 445.963 405.92C444.306 404.613 442.078 403.96 439.278 403.96H430.178V419.185Z" fill="#171717"/>
<path d="M458.271 445.05L477.066 396.05H487.216L506.396 445.05H496.141L491.976 433.955H472.271L468.246 445.05H458.271ZM474.511 426.22H489.666L481.966 406.34L474.511 426.22Z" fill="#171717"/>
<path d="M527.193 446.1C523.413 446.1 519.972 445.622 516.868 444.665C513.765 443.708 511.023 442.332 508.643 440.535L512.808 433.325C514.488 434.795 516.507 435.962 518.863 436.825C521.243 437.665 523.728 438.085 526.318 438.085C528.558 438.085 530.495 437.77 532.128 437.14C533.762 436.51 535.022 435.635 535.908 434.515C536.818 433.395 537.273 432.088 537.273 430.595C537.273 428.262 536.48 426.5 534.893 425.31C533.307 424.097 530.845 423.49 527.508 423.49H517.813V416.315H526.808C528.675 416.315 530.273 416.047 531.603 415.51C532.957 414.973 533.995 414.215 534.718 413.235C535.442 412.232 535.803 411.03 535.803 409.63C535.803 408.253 535.442 407.098 534.718 406.165C534.018 405.232 532.957 404.532 531.533 404.065C530.133 403.575 528.418 403.33 526.388 403.33C524.125 403.33 521.932 403.703 519.808 404.45C517.708 405.197 515.912 406.235 514.418 407.565L510.183 400.88C512.307 398.99 514.873 397.543 517.883 396.54C520.893 395.513 524.113 395 527.543 395C531.137 395 534.228 395.525 536.818 396.575C539.408 397.602 541.392 399.083 542.768 401.02C544.168 402.957 544.868 405.278 544.868 407.985C544.868 409.478 544.53 410.937 543.853 412.36C543.177 413.76 542.278 415.02 541.158 416.14C540.062 417.237 538.86 418.077 537.553 418.66C540.283 419.547 542.488 421.028 544.168 423.105C545.872 425.182 546.712 427.795 546.688 430.945C546.688 433.792 545.872 436.358 544.238 438.645C542.628 440.932 540.353 442.752 537.413 444.105C534.497 445.435 531.09 446.1 527.193 446.1Z" fill="#171717"/>
<path d="M556.361 445.05V396.05H565.461V415.09H587.721V396.05H596.821V445.05H587.721V423.42H565.461V445.05H556.361Z" fill="#171717"/>
<path d="M609.203 445.05V396.05H618.303V414.18H627.228C630.751 414.18 633.866 414.798 636.573 416.035C639.303 417.248 641.45 419.01 643.013 421.32C644.576 423.63 645.358 426.407 645.358 429.65C645.358 432.123 644.95 434.317 644.133 436.23C643.316 438.143 642.126 439.753 640.563 441.06C639 442.367 637.075 443.358 634.788 444.035C632.525 444.712 629.935 445.05 627.018 445.05H609.203ZM618.303 437.315H626.983C629.9 437.315 632.175 436.708 633.808 435.495C635.441 434.282 636.258 432.392 636.258 429.825C636.258 427.258 635.418 425.333 633.738 424.05C632.081 422.743 629.853 422.09 627.053 422.09H618.303V437.315ZM652.113 445.05V396.05H661.213V445.05H652.113Z" fill="#171717"/>
<path d="M673.598 445.05V396.05H706.183V404.03H682.698V415.895H702.788V423.35H682.698V437H706.428V445.05H673.598Z" fill="#171717"/>
<path d="M753.492 447.29V441.165C748.966 441.025 744.964 440.103 741.487 438.4C738.034 436.673 735.327 434.27 733.367 431.19C731.407 428.11 730.427 424.458 730.427 420.235C730.427 415.988 731.407 412.325 733.367 409.245C735.327 406.165 738.034 403.773 741.487 402.07C744.964 400.343 748.966 399.41 753.492 399.27V393.285H762.382V399.27C766.886 399.41 770.876 400.343 774.352 402.07C777.829 403.773 780.547 406.165 782.507 409.245C784.467 412.325 785.447 415.988 785.447 420.235C785.447 424.458 784.467 428.11 782.507 431.19C780.547 434.27 777.829 436.673 774.352 438.4C770.876 440.103 766.886 441.025 762.382 441.165V447.29H753.492ZM753.492 433.5V406.935C750.622 407.028 748.149 407.623 746.072 408.72C743.996 409.817 742.397 411.345 741.277 413.305C740.157 415.242 739.597 417.552 739.597 420.235C739.597 422.918 740.157 425.228 741.277 427.165C742.397 429.102 743.996 430.618 746.072 431.715C748.149 432.788 750.622 433.383 753.492 433.5ZM762.382 433.5C765.252 433.383 767.726 432.788 769.802 431.715C771.879 430.618 773.477 429.102 774.597 427.165C775.717 425.228 776.277 422.918 776.277 420.235C776.277 417.552 775.717 415.242 774.597 413.305C773.477 411.345 771.879 409.817 769.802 408.72C767.726 407.623 765.252 407.028 762.382 406.935V433.5Z" fill="#171717"/>
<path d="M852.426 445.05V396.05H870.801C874.324 396.05 877.451 396.668 880.181 397.905C882.911 399.118 885.046 400.88 886.586 403.19C888.149 405.5 888.931 408.277 888.931 411.52C888.931 414.81 888.207 417.598 886.761 419.885C885.337 422.172 883.261 423.922 880.531 425.135C877.801 426.325 874.487 426.92 870.591 426.92H861.526V445.05H852.426ZM861.526 419.185H870.556C873.472 419.185 875.747 418.578 877.381 417.365C879.014 416.152 879.831 414.262 879.831 411.695C879.831 409.128 878.991 407.203 877.311 405.92C875.654 404.613 873.426 403.96 870.626 403.96H861.526V419.185Z" fill="#171717"/>
<path d="M897.338 445.05V396.05H906.123L925.653 428.04L922.083 428.075L940.808 396.05H949.488V445.05H940.633L940.773 407.95L942.453 408.545L926.633 434.935H920.228L904.023 408.545L905.528 407.95L905.668 445.05H897.338Z" fill="#171717"/>
<path d="M961.869 445.05V396.05H970.969V414.18H979.894C983.417 414.18 986.532 414.798 989.239 416.035C991.969 417.248 994.116 419.01 995.679 421.32C997.242 423.63 998.024 426.407 998.024 429.65C998.024 432.123 997.616 434.317 996.799 436.23C995.982 438.143 994.792 439.753 993.229 441.06C991.666 442.367 989.741 443.358 987.454 444.035C985.191 444.712 982.601 445.05 979.684 445.05H961.869ZM970.969 437.315H979.649C982.566 437.315 984.841 436.708 986.474 435.495C988.107 434.282 988.924 432.392 988.924 429.825C988.924 427.258 988.084 425.333 986.404 424.05C984.747 422.743 982.519 422.09 979.719 422.09H970.969V437.315ZM1004.78 445.05V396.05H1013.88V445.05H1004.78Z" fill="#171717"/>
</svg>
